<?xml version="1.0" encoding="UTF-8"?>
<svg xmlns="http://www.w3.org/2000/svg" xmlns:xlink="http://www.w3.org/1999/xlink" width="15px" height="15px" viewBox="0 0 15 15" version="1.1">
<defs>
<filter id="alpha" filterUnits="objectBoundingBox" x="0%" y="0%" width="100%" height="100%">
  <feColorMatrix type="matrix" in="SourceGraphic" values="0 0 0 0 1 0 0 0 0 1 0 0 0 0 1 0 0 0 1 0"/>
</filter>
<mask id="mask0">
  <g filter="url(#alpha)">
<rect x="0" y="0" width="15" height="15" style="fill:rgb(0%,0%,0%);fill-opacity:0.2;stroke:none;"/>
  </g>
</mask>
<clipPath id="clip1">
  <rect x="0" y="0" width="15" height="15"/>
</clipPath>
<g id="surface5" clip-path="url(#clip1)">
<path style=" stroke:none;fill-rule:nonzero;fill:rgb(10.196079%,10.196079%,10.196079%);fill-opacity:1;" d="M 0.121094 2.929688 C 5.03125 0.476562 9.910156 4.457031 14.878906 2 L 14.878906 12.078125 C 12.339844 13.335938 9.816406 12.894531 7.257812 12.503906 C 4.902344 12.140625 2.523438 11.808594 0.121094 13.007812 L 0.121094 2.929688 M 0.589844 3.21875 L 0.589844 12.285156 C 5.175781 10.367188 9.742188 13.722656 14.410156 11.785156 L 14.410156 2.71875 C 9.808594 4.628906 5.238281 1.273438 0.589844 3.21875 "/>
</g>
</defs>
<g id="surface1">
<path style=" stroke:none;fill-rule:nonzero;fill:rgb(0%,0%,54.509807%);fill-opacity:1;" d="M 0.121094 2.929688 C 5.03125 0.476562 9.910156 4.457031 14.878906 2 L 14.878906 12.078125 C 12.339844 13.335938 9.816406 12.894531 7.257812 12.503906 C 4.902344 12.140625 2.523438 11.808594 0.121094 13.007812 L 0.121094 2.929688 "/>
<path style=" stroke:none;fill-rule:nonzero;fill:rgb(100%,100%,100%);fill-opacity:1;" d="M 0.121094 2.929688 C 0.390625 2.792969 0.664062 2.675781 0.945312 2.574219 C 1.890625 2.878906 2.835938 3.390625 3.808594 4.046875 C 4.753906 3.394531 5.699219 2.855469 6.675781 2.335938 L 7.5 2.460938 L 7.664062 2.9375 C 6.664062 3.464844 5.664062 3.984375 4.636719 4.628906 C 5.632812 5.371094 6.636719 6.210938 7.664062 7.074219 L 7.335938 7.925781 C 6.171875 6.953125 5.007812 5.980469 3.808594 5.171875 C 2.648438 5.980469 1.484375 6.957031 0.285156 8.339844 L 0.121094 7.96875 L 0.121094 7.40625 C 1.066406 6.289062 2.011719 5.402344 2.984375 4.648438 C 2.039062 4.089844 1.09375 3.671875 0.121094 3.492188 L 0.121094 2.929688 "/>
<path style=" stroke:none;fill-rule:nonzero;fill:rgb(100%,0%,0%);fill-opacity:1;" d="M 3.808594 4.609375 C 3.992188 4.609375 4.171875 4.609375 4.359375 4.617188 C 5.433594 5.390625 6.503906 6.289062 7.609375 7.214844 L 7.5 7.5 C 6.28125 6.480469 5.066406 5.457031 3.808594 4.609375 L 3.808594 4.984375 C 2.628906 5.804688 1.445312 6.800781 0.230469 8.214844 L 0.121094 7.96875 C 1.335938 6.527344 2.554688 5.480469 3.808594 4.609375 C 3.628906 4.613281 3.445312 4.617188 3.261719 4.628906 C 2.222656 3.984375 1.1875 3.5 0.121094 3.304688 L 0.121094 2.929688 C 1.335938 3.152344 2.554688 3.765625 3.808594 4.609375 L 3.808594 4.234375 C 4.847656 3.519531 5.882812 2.941406 6.949219 2.375 L 7.5 2.460938 C 6.28125 3.101562 5.0625 3.742188 3.808594 4.609375 "/>
<path style=" stroke:none;fill-rule:nonzero;fill:rgb(100%,100%,100%);fill-opacity:1;" d="M 4.425781 2.101562 L 4.425781 3.78125 C 5.847656 3.839844 7.265625 4.121094 8.730469 4.324219 L 8.730469 6.003906 C 7.308594 5.808594 5.886719 5.523438 4.425781 5.460938 L 4.425781 7.980469 C 4.019531 7.964844 3.613281 7.964844 3.195312 7.992188 L 3.195312 5.472656 C 2.179688 5.542969 1.164062 5.765625 0.121094 6.289062 L 0.121094 4.609375 C 1.136719 4.101562 2.148438 3.867188 3.195312 3.792969 L 3.195312 2.113281 C 3.601562 2.085938 4.007812 2.082031 4.425781 2.101562 "/>
<path style=" stroke:none;fill-rule:nonzero;fill:rgb(100%,0%,0%);fill-opacity:1;" d="M 4.179688 2.09375 L 4.179688 4.109375 C 5.679688 4.144531 7.183594 4.445312 8.730469 4.660156 L 8.730469 5.667969 C 7.230469 5.460938 5.726562 5.152344 4.179688 5.117188 L 4.179688 7.972656 C 3.933594 7.96875 3.691406 7.96875 3.441406 7.980469 L 3.441406 5.125 C 2.34375 5.171875 1.25 5.390625 0.121094 5.953125 L 0.121094 4.945312 C 1.21875 4.398438 2.3125 4.164062 3.441406 4.117188 L 3.441406 2.101562 C 3.683594 2.089844 3.929688 2.085938 4.179688 2.09375 "/>
<path style=" stroke:none;fill-rule:nonzero;fill:rgb(0%,0%,54.509807%);fill-opacity:1;" d="M 0.121094 7.96875 C 2.558594 6.75 4.988281 7.109375 7.5 7.5 L 7.5 2.460938 C 8.3125 2.585938 9.125 2.710938 9.960938 2.78125 L 9.960938 9.5 C 6.730469 9.234375 3.445312 7.988281 0.121094 9.648438 L 0.121094 7.96875 "/>
<path style=" stroke:none;fill-rule:nonzero;fill:rgb(100%,100%,100%);fill-opacity:1;" d="M 3.808594 8.136719 L 4.023438 9.042969 C 4.238281 8.9375 4.453125 8.832031 4.675781 8.730469 L 4.289062 9.507812 L 4.890625 10.023438 C 4.660156 10.035156 4.429688 10.050781 4.195312 10.070312 L 4.289062 11.019531 L 3.808594 10.320312 L 3.328125 11.027344 L 3.425781 10.078125 C 3.195312 10.0625 2.96875 10.054688 2.730469 10.054688 C 2.929688 9.867188 3.125 9.691406 3.332031 9.515625 L 2.945312 8.75 C 3.160156 8.84375 3.375 8.941406 3.597656 9.046875 L 3.808594 8.136719 "/>
<path style=" stroke:none;fill-rule:nonzero;fill:rgb(100%,100%,100%);fill-opacity:1;" d="M 11.191406 10.511719 L 11.292969 10.941406 L 11.601562 10.769531 L 11.417969 11.15625 L 11.703125 11.375 L 11.375 11.425781 L 11.417969 11.875 L 11.191406 11.550781 L 10.960938 11.878906 L 11.007812 11.429688 L 10.675781 11.382812 L 10.960938 11.160156 L 10.777344 10.777344 L 11.089844 10.941406 L 11.191406 10.511719 "/>
<path style=" stroke:none;fill-rule:nonzero;fill:rgb(100%,100%,100%);fill-opacity:1;" d="M 9.34375 6.410156 L 9.445312 6.851562 L 9.757812 6.722656 L 9.574219 7.082031 L 9.859375 7.34375 L 9.527344 7.351562 L 9.574219 7.804688 L 9.34375 7.449219 L 9.117188 7.75 L 9.160156 7.308594 L 8.832031 7.226562 L 9.117188 7.03125 L 8.933594 6.628906 L 9.242188 6.828125 L 9.34375 6.410156 "/>
<path style=" stroke:none;fill-rule:nonzero;fill:rgb(100%,100%,100%);fill-opacity:1;" d="M 11.191406 3.789062 L 11.292969 4.21875 L 11.601562 4.050781 L 11.417969 4.433594 L 11.703125 4.652344 L 11.375 4.707031 L 11.417969 5.15625 L 11.191406 4.828125 L 10.960938 5.160156 L 11.007812 4.710938 L 10.675781 4.664062 L 10.960938 4.4375 L 10.777344 4.058594 L 11.089844 4.222656 L 11.191406 3.789062 "/>
<path style=" stroke:none;fill-rule:nonzero;fill:rgb(100%,100%,100%);fill-opacity:1;" d="M 12.828125 5.699219 L 12.933594 6.109375 L 13.242188 5.882812 L 13.058594 6.300781 L 13.34375 6.464844 C 13.234375 6.507812 13.125 6.542969 13.011719 6.582031 L 13.058594 7.019531 L 12.828125 6.738281 L 12.601562 7.105469 L 12.648438 6.648438 C 12.539062 6.652344 12.429688 6.65625 12.316406 6.65625 L 12.601562 6.386719 L 12.417969 6.035156 L 12.726562 6.148438 L 12.828125 5.699219 "/>
<path style=" stroke:none;fill-rule:nonzero;fill:rgb(100%,100%,100%);fill-opacity:1;" d="M 11.929688 7.839844 L 12.007812 8.101562 L 12.21875 8.101562 L 12.058594 8.304688 L 12.109375 8.582031 L 11.929688 8.445312 L 11.746094 8.609375 L 11.796875 8.324219 L 11.636719 8.148438 L 11.847656 8.113281 L 11.929688 7.839844 "/>
<use xlink:href="#surface5" mask="url(#mask0)"/>
</g>
</svg>
