<?xml version="1.0" encoding="UTF-8"?>
<svg xmlns="http://www.w3.org/2000/svg" xmlns:xlink="http://www.w3.org/1999/xlink" width="15px" height="15px" viewBox="0 0 15 15" version="1.1">
<defs>
<filter id="alpha" filterUnits="objectBoundingBox" x="0%" y="0%" width="100%" height="100%">
  <feColorMatrix type="matrix" in="SourceGraphic" values="0 0 0 0 1 0 0 0 0 1 0 0 0 0 1 0 0 0 1 0"/>
</filter>
<mask id="mask0">
  <g filter="url(#alpha)">
<rect x="0" y="0" width="15" height="15" style="fill:rgb(0%,0%,0%);fill-opacity:0.2;stroke:none;"/>
  </g>
</mask>
<clipPath id="clip1">
  <rect x="0" y="0" width="15" height="15"/>
</clipPath>
<g id="surface5" clip-path="url(#clip1)">
<path style=" stroke:none;fill-rule:nonzero;fill:rgb(10.196079%,10.196079%,10.196079%);fill-opacity:1;" d="M 0.121094 2.929688 C 2.683594 1.652344 5.234375 2.113281 7.820312 2.507812 C 10.148438 2.867188 12.5 3.179688 14.878906 1.992188 L 14.878906 12.070312 C 12.316406 13.347656 9.765625 12.886719 7.179688 12.492188 C 4.851562 12.132812 2.5 11.820312 0.121094 13.007812 L 0.121094 2.929688 M 0.589844 3.21875 L 0.589844 12.285156 C 5.1875 10.363281 9.757812 13.726562 14.410156 11.78125 L 14.410156 2.714844 C 9.8125 4.636719 5.242188 1.273438 0.589844 3.21875 "/>
</g>
</defs>
<g id="surface1">
<path style=" stroke:none;fill-rule:nonzero;fill:rgb(0%,60.784316%,22.745098%);fill-opacity:1;" d="M 0.121094 2.929688 C 2.683594 1.652344 5.234375 2.113281 7.820312 2.507812 C 10.148438 2.867188 12.5 3.179688 14.878906 1.992188 L 14.878906 12.070312 C 12.316406 13.347656 9.765625 12.886719 7.179688 12.492188 C 4.851562 12.132812 2.5 11.820312 0.121094 13.007812 L 0.121094 2.929688 "/>
<path style=" stroke:none;fill-rule:nonzero;fill:rgb(99.607843%,87.450981%,0%);fill-opacity:1;" d="M 1.375 7.472656 C 3.398438 8.136719 5.414062 9.695312 7.5 11.316406 C 9.519531 10.371094 11.546875 9.4375 13.625 7.527344 C 11.601562 6.863281 9.585938 5.304688 7.5 3.683594 C 5.480469 4.628906 3.453125 5.5625 1.375 7.472656 "/>
<path style=" stroke:none;fill-rule:nonzero;fill:rgb(0%,15.294118%,46.27451%);fill-opacity:1;" d="M 10.082031 7.832031 C 10.078125 9.246094 8.929688 10.238281 7.5 10.019531 C 6.070312 9.792969 4.921875 8.546875 4.917969 7.167969 C 4.921875 5.753906 6.070312 4.761719 7.5 4.980469 C 8.929688 5.207031 10.078125 6.453125 10.082031 7.832031 "/>
<path style=" stroke:none;fill-rule:nonzero;fill:rgb(100%,100%,100%);fill-opacity:1;" d="M 5.136719 6.167969 C 5.425781 6.152344 5.722656 6.167969 6.023438 6.203125 C 7.554688 6.402344 8.976562 7.214844 10.058594 8.183594 C 10.039062 8.316406 10.007812 8.449219 9.964844 8.574219 C 8.929688 7.585938 7.53125 6.761719 6.023438 6.5625 C 5.675781 6.519531 5.332031 6.511719 5 6.542969 C 5.035156 6.410156 5.082031 6.285156 5.136719 6.167969 "/>
<path style=" stroke:none;fill-rule:nonzero;fill:rgb(0%,60.784316%,22.745098%);fill-opacity:1;" d="M 5.296875 6.464844 C 5.234375 6.460938 5.183594 6.417969 5.171875 6.347656 C 5.167969 6.277344 5.203125 6.230469 5.265625 6.222656 C 5.332031 6.226562 5.378906 6.273438 5.390625 6.34375 C 5.398438 6.414062 5.359375 6.460938 5.296875 6.464844 M 5.292969 6.421875 C 5.328125 6.414062 5.347656 6.386719 5.347656 6.34375 C 5.339844 6.300781 5.3125 6.273438 5.273438 6.269531 C 5.234375 6.273438 5.214844 6.300781 5.21875 6.347656 C 5.226562 6.390625 5.253906 6.417969 5.292969 6.421875 "/>
<path style=" stroke:none;fill-rule:nonzero;fill:rgb(0%,60.784316%,22.745098%);fill-opacity:1;" d="M 5.496094 6.464844 L 5.484375 6.222656 L 5.625 6.226562 C 5.667969 6.234375 5.699219 6.261719 5.707031 6.308594 C 5.707031 6.351562 5.679688 6.378906 5.632812 6.378906 L 5.535156 6.375 L 5.542969 6.464844 L 5.496094 6.464844 M 5.535156 6.332031 L 5.628906 6.335938 C 5.648438 6.335938 5.65625 6.324219 5.65625 6.304688 C 5.65625 6.289062 5.640625 6.277344 5.625 6.273438 L 5.527344 6.269531 L 5.535156 6.332031 "/>
<path style=" stroke:none;fill-rule:nonzero;fill:rgb(0%,60.784316%,22.745098%);fill-opacity:1;" d="M 5.707031 6.472656 C 5.703125 6.433594 5.699219 6.371094 5.644531 6.359375 L 5.578125 6.355469 C 5.65625 6.367188 5.660156 6.429688 5.664062 6.472656 L 5.707031 6.472656 "/>
<path style=" stroke:none;fill-rule:nonzero;fill:rgb(0%,60.784316%,22.745098%);fill-opacity:1;" d="M 5.808594 6.480469 L 5.804688 6.238281 L 5.921875 6.253906 C 5.980469 6.261719 6.023438 6.304688 6.027344 6.367188 L 6.027344 6.402344 C 6.023438 6.460938 5.988281 6.496094 5.925781 6.492188 L 5.808594 6.480469 M 5.855469 6.441406 L 5.921875 6.449219 C 5.960938 6.449219 5.984375 6.425781 5.988281 6.390625 L 5.984375 6.367188 C 5.980469 6.332031 5.957031 6.304688 5.917969 6.296875 L 5.851562 6.289062 L 5.855469 6.441406 "/>
<path style=" stroke:none;fill-rule:nonzero;fill:rgb(0%,60.784316%,22.745098%);fill-opacity:1;" d="M 6.121094 6.515625 L 6.34375 6.554688 L 6.34375 6.511719 L 6.164062 6.480469 L 6.167969 6.417969 L 6.308594 6.441406 L 6.308594 6.402344 L 6.167969 6.378906 L 6.171875 6.328125 L 6.339844 6.359375 L 6.339844 6.3125 L 6.128906 6.277344 L 6.121094 6.515625 "/>
<path style=" stroke:none;fill-rule:nonzero;fill:rgb(0%,60.784316%,22.745098%);fill-opacity:1;" d="M 6.433594 6.574219 L 6.476562 6.582031 L 6.492188 6.421875 L 6.523438 6.59375 L 6.5625 6.601562 L 6.625 6.453125 L 6.613281 6.613281 L 6.652344 6.625 L 6.675781 6.386719 L 6.613281 6.371094 L 6.550781 6.523438 L 6.515625 6.351562 L 6.457031 6.335938 L 6.433594 6.574219 "/>
<path style=" stroke:none;fill-rule:nonzero;fill:rgb(0%,60.784316%,22.745098%);fill-opacity:1;" d="M 6.941406 6.703125 L 7.125 6.761719 L 7.132812 6.722656 L 6.992188 6.675781 L 7 6.625 L 7.117188 6.660156 L 7.125 6.621094 L 7.007812 6.585938 L 7.015625 6.550781 L 7.152344 6.59375 L 7.160156 6.554688 L 6.980469 6.496094 L 6.941406 6.703125 "/>
<path style=" stroke:none;fill-rule:nonzero;fill:rgb(0%,60.784316%,22.745098%);fill-opacity:1;" d="M 7.410156 6.863281 L 7.476562 6.644531 L 7.613281 6.699219 C 7.65625 6.71875 7.675781 6.757812 7.667969 6.800781 C 7.652344 6.839844 7.617188 6.851562 7.574219 6.839844 L 7.476562 6.800781 L 7.453125 6.882812 L 7.410156 6.863281 M 7.488281 6.757812 L 7.582031 6.796875 C 7.597656 6.800781 7.613281 6.796875 7.621094 6.78125 C 7.621094 6.761719 7.613281 6.746094 7.597656 6.738281 L 7.503906 6.699219 L 7.488281 6.757812 "/>
<path style=" stroke:none;fill-rule:nonzero;fill:rgb(0%,60.784316%,22.745098%);fill-opacity:1;" d="M 7.710938 6.988281 L 7.789062 6.773438 L 7.921875 6.835938 C 7.964844 6.859375 7.984375 6.894531 7.972656 6.9375 C 7.957031 6.976562 7.921875 6.988281 7.878906 6.972656 L 7.785156 6.929688 L 7.757812 7.011719 L 7.710938 6.988281 M 7.796875 6.886719 L 7.886719 6.929688 C 7.90625 6.9375 7.921875 6.933594 7.925781 6.917969 C 7.929688 6.898438 7.921875 6.882812 7.90625 6.875 L 7.816406 6.832031 L 7.796875 6.886719 "/>
<path style=" stroke:none;fill-rule:nonzero;fill:rgb(0%,60.784316%,22.745098%);fill-opacity:1;" d="M 7.910156 7.082031 C 7.925781 7.046875 7.941406 6.988281 7.894531 6.960938 L 7.832031 6.929688 C 7.902344 6.96875 7.882812 7.027344 7.871094 7.0625 L 7.910156 7.082031 "/>
<path style=" stroke:none;fill-rule:nonzero;fill:rgb(0%,60.784316%,22.745098%);fill-opacity:1;" d="M 8.113281 7.183594 C 8.054688 7.148438 8.03125 7.085938 8.050781 7.023438 C 8.082031 6.964844 8.136719 6.945312 8.199219 6.96875 C 8.257812 7.003906 8.28125 7.066406 8.261719 7.128906 C 8.230469 7.191406 8.175781 7.210938 8.113281 7.183594 M 8.128906 7.144531 C 8.167969 7.160156 8.199219 7.144531 8.21875 7.109375 C 8.230469 7.066406 8.21875 7.03125 8.183594 7.011719 C 8.144531 6.996094 8.113281 7.007812 8.09375 7.046875 C 8.082031 7.085938 8.09375 7.121094 8.128906 7.144531 "/>
<path style=" stroke:none;fill-rule:nonzero;fill:rgb(0%,60.784316%,22.745098%);fill-opacity:1;" d="M 8.402344 7.339844 C 8.347656 7.300781 8.324219 7.238281 8.351562 7.179688 C 8.382812 7.121094 8.441406 7.105469 8.5 7.132812 C 8.546875 7.164062 8.566406 7.203125 8.5625 7.253906 L 8.519531 7.230469 C 8.515625 7.203125 8.503906 7.183594 8.484375 7.171875 C 8.445312 7.15625 8.414062 7.167969 8.390625 7.203125 C 8.375 7.242188 8.386719 7.277344 8.421875 7.300781 C 8.457031 7.316406 8.492188 7.308594 8.511719 7.269531 L 8.554688 7.292969 C 8.519531 7.351562 8.464844 7.371094 8.402344 7.339844 "/>
<path style=" stroke:none;fill-rule:nonzero;fill:rgb(0%,60.784316%,22.745098%);fill-opacity:1;" d="M 8.46875 7.246094 L 8.554688 7.292969 L 8.539062 7.324219 L 8.453125 7.273438 L 8.46875 7.246094 "/>
<path style=" stroke:none;fill-rule:nonzero;fill:rgb(0%,60.784316%,22.745098%);fill-opacity:1;" d="M 8.519531 7.277344 L 8.554688 7.292969 L 8.503906 7.398438 L 8.472656 7.378906 L 8.519531 7.277344 "/>
<path style=" stroke:none;fill-rule:nonzero;fill:rgb(0%,60.784316%,22.745098%);fill-opacity:1;" d="M 8.585938 7.445312 L 8.699219 7.25 L 8.824219 7.328125 C 8.863281 7.355469 8.878906 7.394531 8.859375 7.433594 C 8.835938 7.46875 8.796875 7.476562 8.757812 7.453125 L 8.667969 7.398438 L 8.628906 7.472656 L 8.585938 7.445312 M 8.6875 7.359375 L 8.773438 7.414062 C 8.792969 7.421875 8.804688 7.417969 8.816406 7.40625 C 8.824219 7.390625 8.816406 7.375 8.800781 7.363281 L 8.71875 7.308594 L 8.6875 7.359375 "/>
<path style=" stroke:none;fill-rule:nonzero;fill:rgb(0%,60.784316%,22.745098%);fill-opacity:1;" d="M 8.773438 7.5625 C 8.792969 7.53125 8.820312 7.476562 8.777344 7.441406 L 8.71875 7.40625 C 8.78125 7.453125 8.753906 7.507812 8.734375 7.539062 L 8.773438 7.5625 "/>
<path style=" stroke:none;fill-rule:nonzero;fill:rgb(0%,60.784316%,22.745098%);fill-opacity:1;" d="M 8.863281 7.621094 L 9.058594 7.753906 L 9.082031 7.71875 L 8.925781 7.613281 L 8.957031 7.5625 L 9.078125 7.644531 L 9.097656 7.613281 L 8.976562 7.527344 L 9 7.492188 L 9.148438 7.589844 L 9.167969 7.554688 L 8.988281 7.429688 L 8.863281 7.621094 "/>
<path style=" stroke:none;fill-rule:nonzero;fill:rgb(0%,60.784316%,22.745098%);fill-opacity:1;" d="M 9.222656 7.785156 C 9.210938 7.804688 9.222656 7.824219 9.253906 7.851562 C 9.285156 7.871094 9.300781 7.875 9.3125 7.863281 C 9.328125 7.820312 9.195312 7.75 9.230469 7.679688 C 9.28125 7.628906 9.339844 7.675781 9.371094 7.699219 C 9.398438 7.722656 9.433594 7.761719 9.40625 7.8125 L 9.363281 7.777344 C 9.375 7.753906 9.359375 7.738281 9.335938 7.71875 C 9.3125 7.699219 9.296875 7.691406 9.28125 7.710938 C 9.269531 7.746094 9.398438 7.816406 9.363281 7.890625 C 9.324219 7.933594 9.273438 7.910156 9.230469 7.878906 C 9.191406 7.847656 9.148438 7.800781 9.175781 7.75 L 9.222656 7.785156 "/>
<path style=" stroke:none;fill-rule:nonzero;fill:rgb(0%,60.784316%,22.745098%);fill-opacity:1;" d="M 9.488281 7.984375 C 9.476562 8.003906 9.484375 8.027344 9.515625 8.050781 C 9.546875 8.074219 9.5625 8.074219 9.574219 8.066406 C 9.589844 8.023438 9.460938 7.949219 9.5 7.878906 C 9.550781 7.832031 9.609375 7.878906 9.640625 7.90625 C 9.667969 7.929688 9.703125 7.96875 9.667969 8.019531 L 9.625 7.984375 C 9.640625 7.960938 9.628906 7.941406 9.605469 7.921875 C 9.582031 7.902344 9.566406 7.898438 9.550781 7.914062 C 9.535156 7.949219 9.660156 8.023438 9.621094 8.09375 C 9.578125 8.136719 9.53125 8.109375 9.488281 8.078125 C 9.453125 8.046875 9.414062 8 9.441406 7.949219 L 9.488281 7.984375 "/>
<path style=" stroke:none;fill-rule:nonzero;fill:rgb(0%,60.784316%,22.745098%);fill-opacity:1;" d="M 9.738281 8.285156 C 9.691406 8.238281 9.6875 8.179688 9.726562 8.125 C 9.773438 8.078125 9.839844 8.074219 9.890625 8.113281 C 9.9375 8.160156 9.941406 8.222656 9.902344 8.273438 C 9.851562 8.324219 9.789062 8.328125 9.738281 8.285156 M 9.765625 8.253906 C 9.796875 8.277344 9.835938 8.273438 9.863281 8.242188 C 9.890625 8.210938 9.890625 8.171875 9.863281 8.144531 C 9.832031 8.121094 9.792969 8.125 9.761719 8.15625 C 9.738281 8.191406 9.738281 8.226562 9.765625 8.253906 "/>
<path style=" stroke:none;fill-rule:nonzero;fill:rgb(100%,100%,100%);fill-opacity:1;" d="M 5.390625 6.652344 L 5.355469 6.75 L 5.410156 6.773438 L 5.390625 6.652344 "/>
<path style=" stroke:none;fill-rule:nonzero;fill:rgb(100%,100%,100%);fill-opacity:1;" d="M 5.390625 6.652344 L 5.425781 6.757812 L 5.371094 6.769531 L 5.390625 6.652344 "/>
<path style=" stroke:none;fill-rule:nonzero;fill:rgb(100%,100%,100%);fill-opacity:1;" d="M 5.496094 6.734375 L 5.386719 6.726562 L 5.386719 6.777344 L 5.496094 6.734375 "/>
<path style=" stroke:none;fill-rule:nonzero;fill:rgb(100%,100%,100%);fill-opacity:1;" d="M 5.496094 6.734375 L 5.40625 6.789062 L 5.375 6.742188 L 5.496094 6.734375 "/>
<path style=" stroke:none;fill-rule:nonzero;fill:rgb(100%,100%,100%);fill-opacity:1;" d="M 5.285156 6.714844 L 5.375 6.785156 L 5.410156 6.746094 L 5.285156 6.714844 "/>
<path style=" stroke:none;fill-rule:nonzero;fill:rgb(100%,100%,100%);fill-opacity:1;" d="M 5.285156 6.714844 L 5.398438 6.726562 L 5.398438 6.78125 L 5.285156 6.714844 "/>
<path style=" stroke:none;fill-rule:nonzero;fill:rgb(100%,100%,100%);fill-opacity:1;" d="M 5.457031 6.851562 L 5.421875 6.746094 L 5.371094 6.757812 L 5.457031 6.851562 "/>
<path style=" stroke:none;fill-rule:nonzero;fill:rgb(100%,100%,100%);fill-opacity:1;" d="M 5.457031 6.851562 L 5.367188 6.78125 L 5.398438 6.738281 L 5.457031 6.851562 "/>
<path style=" stroke:none;fill-rule:nonzero;fill:rgb(100%,100%,100%);fill-opacity:1;" d="M 5.328125 6.839844 L 5.414062 6.785156 L 5.382812 6.738281 L 5.328125 6.839844 "/>
<path style=" stroke:none;fill-rule:nonzero;fill:rgb(100%,100%,100%);fill-opacity:1;" d="M 5.328125 6.839844 L 5.359375 6.738281 L 5.414062 6.761719 L 5.328125 6.839844 "/>
<path style=" stroke:none;fill-rule:nonzero;fill:rgb(100%,100%,100%);fill-opacity:1;" d="M 5.621094 7.734375 L 5.585938 7.832031 L 5.636719 7.855469 L 5.621094 7.734375 "/>
<path style=" stroke:none;fill-rule:nonzero;fill:rgb(100%,100%,100%);fill-opacity:1;" d="M 5.621094 7.734375 L 5.652344 7.839844 L 5.601562 7.851562 L 5.621094 7.734375 "/>
<path style=" stroke:none;fill-rule:nonzero;fill:rgb(100%,100%,100%);fill-opacity:1;" d="M 5.726562 7.820312 L 5.613281 7.808594 L 5.613281 7.863281 L 5.726562 7.820312 "/>
<path style=" stroke:none;fill-rule:nonzero;fill:rgb(100%,100%,100%);fill-opacity:1;" d="M 5.726562 7.820312 L 5.636719 7.875 L 5.601562 7.828125 L 5.726562 7.820312 "/>
<path style=" stroke:none;fill-rule:nonzero;fill:rgb(100%,100%,100%);fill-opacity:1;" d="M 5.515625 7.796875 L 5.605469 7.871094 L 5.636719 7.832031 L 5.515625 7.796875 "/>
<path style=" stroke:none;fill-rule:nonzero;fill:rgb(100%,100%,100%);fill-opacity:1;" d="M 5.515625 7.796875 L 5.625 7.808594 L 5.625 7.863281 L 5.515625 7.796875 "/>
<path style=" stroke:none;fill-rule:nonzero;fill:rgb(100%,100%,100%);fill-opacity:1;" d="M 5.683594 7.9375 L 5.652344 7.832031 L 5.597656 7.839844 L 5.683594 7.9375 "/>
<path style=" stroke:none;fill-rule:nonzero;fill:rgb(100%,100%,100%);fill-opacity:1;" d="M 5.683594 7.9375 L 5.59375 7.863281 L 5.628906 7.824219 L 5.683594 7.9375 "/>
<path style=" stroke:none;fill-rule:nonzero;fill:rgb(100%,100%,100%);fill-opacity:1;" d="M 5.554688 7.921875 L 5.644531 7.867188 L 5.613281 7.820312 L 5.554688 7.921875 "/>
<path style=" stroke:none;fill-rule:nonzero;fill:rgb(100%,100%,100%);fill-opacity:1;" d="M 5.554688 7.921875 L 5.589844 7.824219 L 5.640625 7.847656 L 5.554688 7.921875 "/>
<path style=" stroke:none;fill-rule:nonzero;fill:rgb(100%,100%,100%);fill-opacity:1;" d="M 5.304688 7.945312 L 5.273438 8.027344 L 5.320312 8.046875 L 5.304688 7.945312 "/>
<path style=" stroke:none;fill-rule:nonzero;fill:rgb(100%,100%,100%);fill-opacity:1;" d="M 5.304688 7.945312 L 5.332031 8.035156 L 5.289062 8.042969 L 5.304688 7.945312 "/>
<path style=" stroke:none;fill-rule:nonzero;fill:rgb(100%,100%,100%);fill-opacity:1;" d="M 5.390625 8.015625 L 5.300781 8.007812 L 5.300781 8.050781 L 5.390625 8.015625 "/>
<path style=" stroke:none;fill-rule:nonzero;fill:rgb(100%,100%,100%);fill-opacity:1;" d="M 5.390625 8.015625 L 5.316406 8.0625 L 5.289062 8.023438 L 5.390625 8.015625 "/>
<path style=" stroke:none;fill-rule:nonzero;fill:rgb(100%,100%,100%);fill-opacity:1;" d="M 5.214844 8 L 5.289062 8.058594 L 5.316406 8.027344 L 5.214844 8 "/>
<path style=" stroke:none;fill-rule:nonzero;fill:rgb(100%,100%,100%);fill-opacity:1;" d="M 5.214844 8 L 5.308594 8.007812 L 5.308594 8.054688 L 5.214844 8 "/>
<path style=" stroke:none;fill-rule:nonzero;fill:rgb(100%,100%,100%);fill-opacity:1;" d="M 5.359375 8.113281 L 5.328125 8.023438 L 5.285156 8.035156 L 5.359375 8.113281 "/>
<path style=" stroke:none;fill-rule:nonzero;fill:rgb(100%,100%,100%);fill-opacity:1;" d="M 5.359375 8.113281 L 5.28125 8.054688 L 5.308594 8.019531 L 5.359375 8.113281 "/>
<path style=" stroke:none;fill-rule:nonzero;fill:rgb(100%,100%,100%);fill-opacity:1;" d="M 5.25 8.101562 L 5.324219 8.058594 L 5.296875 8.019531 L 5.25 8.101562 "/>
<path style=" stroke:none;fill-rule:nonzero;fill:rgb(100%,100%,100%);fill-opacity:1;" d="M 5.25 8.101562 L 5.277344 8.019531 L 5.320312 8.039062 L 5.25 8.101562 "/>
<path style=" stroke:none;fill-rule:nonzero;fill:rgb(100%,100%,100%);fill-opacity:1;" d="M 5.871094 7.667969 L 5.855469 7.714844 L 5.882812 7.722656 L 5.871094 7.667969 "/>
<path style=" stroke:none;fill-rule:nonzero;fill:rgb(100%,100%,100%);fill-opacity:1;" d="M 5.871094 7.667969 L 5.890625 7.71875 L 5.863281 7.722656 L 5.871094 7.667969 "/>
<path style=" stroke:none;fill-rule:nonzero;fill:rgb(100%,100%,100%);fill-opacity:1;" d="M 5.921875 7.707031 L 5.871094 7.703125 L 5.871094 7.726562 L 5.921875 7.707031 "/>
<path style=" stroke:none;fill-rule:nonzero;fill:rgb(100%,100%,100%);fill-opacity:1;" d="M 5.921875 7.707031 L 5.878906 7.734375 L 5.863281 7.710938 L 5.921875 7.707031 "/>
<path style=" stroke:none;fill-rule:nonzero;fill:rgb(100%,100%,100%);fill-opacity:1;" d="M 5.824219 7.695312 L 5.867188 7.730469 L 5.882812 7.710938 L 5.824219 7.695312 "/>
<path style=" stroke:none;fill-rule:nonzero;fill:rgb(100%,100%,100%);fill-opacity:1;" d="M 5.824219 7.695312 L 5.875 7.703125 L 5.875 7.726562 L 5.824219 7.695312 "/>
<path style=" stroke:none;fill-rule:nonzero;fill:rgb(100%,100%,100%);fill-opacity:1;" d="M 5.902344 7.761719 L 5.886719 7.710938 L 5.863281 7.71875 L 5.902344 7.761719 "/>
<path style=" stroke:none;fill-rule:nonzero;fill:rgb(100%,100%,100%);fill-opacity:1;" d="M 5.902344 7.761719 L 5.859375 7.726562 L 5.875 7.707031 L 5.902344 7.761719 "/>
<path style=" stroke:none;fill-rule:nonzero;fill:rgb(100%,100%,100%);fill-opacity:1;" d="M 5.84375 7.753906 L 5.882812 7.730469 L 5.867188 7.707031 L 5.84375 7.753906 "/>
<path style=" stroke:none;fill-rule:nonzero;fill:rgb(100%,100%,100%);fill-opacity:1;" d="M 5.84375 7.753906 L 5.859375 7.707031 L 5.882812 7.71875 L 5.84375 7.753906 "/>
<path style=" stroke:none;fill-rule:nonzero;fill:rgb(100%,100%,100%);fill-opacity:1;" d="M 6.15625 8.070312 L 6.128906 8.152344 L 6.171875 8.171875 L 6.15625 8.070312 "/>
<path style=" stroke:none;fill-rule:nonzero;fill:rgb(100%,100%,100%);fill-opacity:1;" d="M 6.15625 8.070312 L 6.1875 8.160156 L 6.140625 8.167969 L 6.15625 8.070312 "/>
<path style=" stroke:none;fill-rule:nonzero;fill:rgb(100%,100%,100%);fill-opacity:1;" d="M 6.246094 8.144531 L 6.152344 8.128906 L 6.152344 8.175781 L 6.246094 8.144531 "/>
<path style=" stroke:none;fill-rule:nonzero;fill:rgb(100%,100%,100%);fill-opacity:1;" d="M 6.246094 8.144531 L 6.171875 8.1875 L 6.144531 8.144531 L 6.246094 8.144531 "/>
<path style=" stroke:none;fill-rule:nonzero;fill:rgb(100%,100%,100%);fill-opacity:1;" d="M 6.070312 8.121094 L 6.144531 8.183594 L 6.171875 8.148438 L 6.070312 8.121094 "/>
<path style=" stroke:none;fill-rule:nonzero;fill:rgb(100%,100%,100%);fill-opacity:1;" d="M 6.070312 8.121094 L 6.160156 8.132812 L 6.160156 8.175781 L 6.070312 8.121094 "/>
<path style=" stroke:none;fill-rule:nonzero;fill:rgb(100%,100%,100%);fill-opacity:1;" d="M 6.210938 8.238281 L 6.183594 8.148438 L 6.140625 8.15625 L 6.210938 8.238281 "/>
<path style=" stroke:none;fill-rule:nonzero;fill:rgb(100%,100%,100%);fill-opacity:1;" d="M 6.210938 8.238281 L 6.136719 8.175781 L 6.164062 8.144531 L 6.210938 8.238281 "/>
<path style=" stroke:none;fill-rule:nonzero;fill:rgb(100%,100%,100%);fill-opacity:1;" d="M 6.101562 8.226562 L 6.179688 8.179688 L 6.152344 8.140625 L 6.101562 8.226562 "/>
<path style=" stroke:none;fill-rule:nonzero;fill:rgb(100%,100%,100%);fill-opacity:1;" d="M 6.101562 8.226562 L 6.132812 8.144531 L 6.175781 8.164062 L 6.101562 8.226562 "/>
<path style=" stroke:none;fill-rule:nonzero;fill:rgb(100%,100%,100%);fill-opacity:1;" d="M 6.082031 8.328125 L 6.058594 8.394531 L 6.09375 8.410156 L 6.082031 8.328125 "/>
<path style=" stroke:none;fill-rule:nonzero;fill:rgb(100%,100%,100%);fill-opacity:1;" d="M 6.082031 8.328125 L 6.101562 8.398438 L 6.066406 8.40625 L 6.082031 8.328125 "/>
<path style=" stroke:none;fill-rule:nonzero;fill:rgb(100%,100%,100%);fill-opacity:1;" d="M 6.152344 8.386719 L 6.078125 8.375 L 6.078125 8.414062 L 6.152344 8.386719 "/>
<path style=" stroke:none;fill-rule:nonzero;fill:rgb(100%,100%,100%);fill-opacity:1;" d="M 6.152344 8.386719 L 6.089844 8.421875 L 6.070312 8.386719 L 6.152344 8.386719 "/>
<path style=" stroke:none;fill-rule:nonzero;fill:rgb(100%,100%,100%);fill-opacity:1;" d="M 6.011719 8.367188 L 6.070312 8.417969 L 6.089844 8.390625 L 6.011719 8.367188 "/>
<path style=" stroke:none;fill-rule:nonzero;fill:rgb(100%,100%,100%);fill-opacity:1;" d="M 6.011719 8.367188 L 6.082031 8.378906 L 6.082031 8.414062 L 6.011719 8.367188 "/>
<path style=" stroke:none;fill-rule:nonzero;fill:rgb(100%,100%,100%);fill-opacity:1;" d="M 6.125 8.464844 L 6.101562 8.390625 L 6.066406 8.398438 L 6.125 8.464844 "/>
<path style=" stroke:none;fill-rule:nonzero;fill:rgb(100%,100%,100%);fill-opacity:1;" d="M 6.125 8.464844 L 6.0625 8.414062 L 6.085938 8.386719 L 6.125 8.464844 "/>
<path style=" stroke:none;fill-rule:nonzero;fill:rgb(100%,100%,100%);fill-opacity:1;" d="M 6.035156 8.453125 L 6.097656 8.417969 L 6.074219 8.386719 L 6.035156 8.453125 "/>
<path style=" stroke:none;fill-rule:nonzero;fill:rgb(100%,100%,100%);fill-opacity:1;" d="M 6.035156 8.453125 L 6.058594 8.386719 L 6.09375 8.402344 L 6.035156 8.453125 "/>
<path style=" stroke:none;fill-rule:nonzero;fill:rgb(100%,100%,100%);fill-opacity:1;" d="M 8.300781 6.730469 L 8.265625 6.828125 L 8.320312 6.855469 L 8.300781 6.730469 "/>
<path style=" stroke:none;fill-rule:nonzero;fill:rgb(100%,100%,100%);fill-opacity:1;" d="M 8.300781 6.730469 L 8.335938 6.839844 L 8.28125 6.847656 L 8.300781 6.730469 "/>
<path style=" stroke:none;fill-rule:nonzero;fill:rgb(100%,100%,100%);fill-opacity:1;" d="M 8.40625 6.824219 L 8.296875 6.804688 L 8.296875 6.859375 L 8.40625 6.824219 "/>
<path style=" stroke:none;fill-rule:nonzero;fill:rgb(100%,100%,100%);fill-opacity:1;" d="M 8.40625 6.824219 L 8.316406 6.871094 L 8.285156 6.824219 L 8.40625 6.824219 "/>
<path style=" stroke:none;fill-rule:nonzero;fill:rgb(100%,100%,100%);fill-opacity:1;" d="M 8.195312 6.792969 L 8.285156 6.867188 L 8.316406 6.828125 L 8.195312 6.792969 "/>
<path style=" stroke:none;fill-rule:nonzero;fill:rgb(100%,100%,100%);fill-opacity:1;" d="M 8.195312 6.792969 L 8.308594 6.808594 L 8.308594 6.863281 L 8.195312 6.792969 "/>
<path style=" stroke:none;fill-rule:nonzero;fill:rgb(100%,100%,100%);fill-opacity:1;" d="M 8.367188 6.9375 L 8.332031 6.828125 L 8.28125 6.839844 L 8.367188 6.9375 "/>
<path style=" stroke:none;fill-rule:nonzero;fill:rgb(100%,100%,100%);fill-opacity:1;" d="M 8.367188 6.9375 L 8.277344 6.859375 L 8.308594 6.820312 L 8.367188 6.9375 "/>
<path style=" stroke:none;fill-rule:nonzero;fill:rgb(100%,100%,100%);fill-opacity:1;" d="M 8.234375 6.917969 L 8.324219 6.867188 L 8.292969 6.820312 L 8.234375 6.917969 "/>
<path style=" stroke:none;fill-rule:nonzero;fill:rgb(100%,100%,100%);fill-opacity:1;" d="M 8.234375 6.917969 L 8.269531 6.820312 L 8.324219 6.84375 L 8.234375 6.917969 "/>
<path style=" stroke:none;fill-rule:nonzero;fill:rgb(100%,100%,100%);fill-opacity:1;" d="M 9.308594 8.53125 L 9.277344 8.632812 L 9.328125 8.65625 L 9.308594 8.53125 "/>
<path style=" stroke:none;fill-rule:nonzero;fill:rgb(100%,100%,100%);fill-opacity:1;" d="M 9.308594 8.53125 L 9.34375 8.640625 L 9.292969 8.648438 L 9.308594 8.53125 "/>
<path style=" stroke:none;fill-rule:nonzero;fill:rgb(100%,100%,100%);fill-opacity:1;" d="M 9.414062 8.621094 L 9.304688 8.605469 L 9.304688 8.660156 L 9.414062 8.621094 "/>
<path style=" stroke:none;fill-rule:nonzero;fill:rgb(100%,100%,100%);fill-opacity:1;" d="M 9.414062 8.621094 L 9.324219 8.671875 L 9.292969 8.625 L 9.414062 8.621094 "/>
<path style=" stroke:none;fill-rule:nonzero;fill:rgb(100%,100%,100%);fill-opacity:1;" d="M 9.203125 8.59375 L 9.292969 8.667969 L 9.328125 8.628906 L 9.203125 8.59375 "/>
<path style=" stroke:none;fill-rule:nonzero;fill:rgb(100%,100%,100%);fill-opacity:1;" d="M 9.203125 8.59375 L 9.316406 8.609375 L 9.316406 8.664062 L 9.203125 8.59375 "/>
<path style=" stroke:none;fill-rule:nonzero;fill:rgb(100%,100%,100%);fill-opacity:1;" d="M 9.375 8.734375 L 9.339844 8.628906 L 9.289062 8.640625 L 9.375 8.734375 "/>
<path style=" stroke:none;fill-rule:nonzero;fill:rgb(100%,100%,100%);fill-opacity:1;" d="M 9.375 8.734375 L 9.285156 8.660156 L 9.316406 8.621094 L 9.375 8.734375 "/>
<path style=" stroke:none;fill-rule:nonzero;fill:rgb(100%,100%,100%);fill-opacity:1;" d="M 9.246094 8.722656 L 9.335938 8.667969 L 9.300781 8.621094 L 9.246094 8.722656 "/>
<path style=" stroke:none;fill-rule:nonzero;fill:rgb(100%,100%,100%);fill-opacity:1;" d="M 9.246094 8.722656 L 9.277344 8.621094 L 9.332031 8.644531 L 9.246094 8.722656 "/>
<path style=" stroke:none;fill-rule:nonzero;fill:rgb(100%,100%,100%);fill-opacity:1;" d="M 9.667969 8.632812 L 9.644531 8.699219 L 9.679688 8.710938 L 9.667969 8.632812 "/>
<path style=" stroke:none;fill-rule:nonzero;fill:rgb(100%,100%,100%);fill-opacity:1;" d="M 9.667969 8.632812 L 9.691406 8.703125 L 9.65625 8.710938 L 9.667969 8.632812 "/>
<path style=" stroke:none;fill-rule:nonzero;fill:rgb(100%,100%,100%);fill-opacity:1;" d="M 9.738281 8.6875 L 9.664062 8.679688 L 9.664062 8.71875 L 9.738281 8.6875 "/>
<path style=" stroke:none;fill-rule:nonzero;fill:rgb(100%,100%,100%);fill-opacity:1;" d="M 9.738281 8.6875 L 9.679688 8.722656 L 9.65625 8.691406 L 9.738281 8.6875 "/>
<path style=" stroke:none;fill-rule:nonzero;fill:rgb(100%,100%,100%);fill-opacity:1;" d="M 9.597656 8.675781 L 9.65625 8.722656 L 9.679688 8.695312 L 9.597656 8.675781 "/>
<path style=" stroke:none;fill-rule:nonzero;fill:rgb(100%,100%,100%);fill-opacity:1;" d="M 9.597656 8.675781 L 9.671875 8.679688 L 9.671875 8.71875 L 9.597656 8.675781 "/>
<path style=" stroke:none;fill-rule:nonzero;fill:rgb(100%,100%,100%);fill-opacity:1;" d="M 9.710938 8.765625 L 9.6875 8.695312 L 9.652344 8.703125 L 9.710938 8.765625 "/>
<path style=" stroke:none;fill-rule:nonzero;fill:rgb(100%,100%,100%);fill-opacity:1;" d="M 9.710938 8.765625 L 9.652344 8.71875 L 9.671875 8.691406 L 9.710938 8.765625 "/>
<path style=" stroke:none;fill-rule:nonzero;fill:rgb(100%,100%,100%);fill-opacity:1;" d="M 9.625 8.757812 L 9.683594 8.722656 L 9.664062 8.691406 L 9.625 8.757812 "/>
<path style=" stroke:none;fill-rule:nonzero;fill:rgb(100%,100%,100%);fill-opacity:1;" d="M 9.625 8.757812 L 9.648438 8.691406 L 9.683594 8.707031 L 9.625 8.757812 "/>
<path style=" stroke:none;fill-rule:nonzero;fill:rgb(100%,100%,100%);fill-opacity:1;" d="M 9.414062 8.785156 L 9.386719 8.867188 L 9.429688 8.886719 L 9.414062 8.785156 "/>
<path style=" stroke:none;fill-rule:nonzero;fill:rgb(100%,100%,100%);fill-opacity:1;" d="M 9.414062 8.785156 L 9.445312 8.875 L 9.398438 8.882812 L 9.414062 8.785156 "/>
<path style=" stroke:none;fill-rule:nonzero;fill:rgb(100%,100%,100%);fill-opacity:1;" d="M 9.503906 8.859375 L 9.410156 8.847656 L 9.410156 8.890625 L 9.503906 8.859375 "/>
<path style=" stroke:none;fill-rule:nonzero;fill:rgb(100%,100%,100%);fill-opacity:1;" d="M 9.503906 8.859375 L 9.429688 8.902344 L 9.402344 8.863281 L 9.503906 8.859375 "/>
<path style=" stroke:none;fill-rule:nonzero;fill:rgb(100%,100%,100%);fill-opacity:1;" d="M 9.328125 8.839844 L 9.402344 8.898438 L 9.429688 8.867188 L 9.328125 8.839844 "/>
<path style=" stroke:none;fill-rule:nonzero;fill:rgb(100%,100%,100%);fill-opacity:1;" d="M 9.328125 8.839844 L 9.417969 8.847656 L 9.417969 8.894531 L 9.328125 8.839844 "/>
<path style=" stroke:none;fill-rule:nonzero;fill:rgb(100%,100%,100%);fill-opacity:1;" d="M 9.46875 8.953125 L 9.441406 8.867188 L 9.398438 8.875 L 9.46875 8.953125 "/>
<path style=" stroke:none;fill-rule:nonzero;fill:rgb(100%,100%,100%);fill-opacity:1;" d="M 9.46875 8.953125 L 9.394531 8.894531 L 9.421875 8.859375 L 9.46875 8.953125 "/>
<path style=" stroke:none;fill-rule:nonzero;fill:rgb(100%,100%,100%);fill-opacity:1;" d="M 9.359375 8.941406 L 9.4375 8.898438 L 9.410156 8.859375 L 9.359375 8.941406 "/>
<path style=" stroke:none;fill-rule:nonzero;fill:rgb(100%,100%,100%);fill-opacity:1;" d="M 9.359375 8.941406 L 9.390625 8.859375 L 9.433594 8.878906 L 9.359375 8.941406 "/>
<path style=" stroke:none;fill-rule:nonzero;fill:rgb(100%,100%,100%);fill-opacity:1;" d="M 8.792969 9.238281 L 8.765625 9.320312 L 8.808594 9.339844 L 8.792969 9.238281 "/>
<path style=" stroke:none;fill-rule:nonzero;fill:rgb(100%,100%,100%);fill-opacity:1;" d="M 8.792969 9.238281 L 8.820312 9.328125 L 8.777344 9.335938 L 8.792969 9.238281 "/>
<path style=" stroke:none;fill-rule:nonzero;fill:rgb(100%,100%,100%);fill-opacity:1;" d="M 8.882812 9.3125 L 8.789062 9.296875 L 8.789062 9.34375 L 8.882812 9.3125 "/>
<path style=" stroke:none;fill-rule:nonzero;fill:rgb(100%,100%,100%);fill-opacity:1;" d="M 8.882812 9.3125 L 8.804688 9.355469 L 8.777344 9.3125 L 8.882812 9.3125 "/>
<path style=" stroke:none;fill-rule:nonzero;fill:rgb(100%,100%,100%);fill-opacity:1;" d="M 8.707031 9.289062 L 8.78125 9.351562 L 8.808594 9.316406 L 8.707031 9.289062 "/>
<path style=" stroke:none;fill-rule:nonzero;fill:rgb(100%,100%,100%);fill-opacity:1;" d="M 8.707031 9.289062 L 8.796875 9.300781 L 8.796875 9.34375 L 8.707031 9.289062 "/>
<path style=" stroke:none;fill-rule:nonzero;fill:rgb(100%,100%,100%);fill-opacity:1;" d="M 8.847656 9.40625 L 8.820312 9.316406 L 8.773438 9.324219 L 8.847656 9.40625 "/>
<path style=" stroke:none;fill-rule:nonzero;fill:rgb(100%,100%,100%);fill-opacity:1;" d="M 8.847656 9.40625 L 8.773438 9.34375 L 8.800781 9.3125 L 8.847656 9.40625 "/>
<path style=" stroke:none;fill-rule:nonzero;fill:rgb(100%,100%,100%);fill-opacity:1;" d="M 8.738281 9.390625 L 8.8125 9.351562 L 8.785156 9.308594 L 8.738281 9.390625 "/>
<path style=" stroke:none;fill-rule:nonzero;fill:rgb(100%,100%,100%);fill-opacity:1;" d="M 8.738281 9.390625 L 8.765625 9.3125 L 8.8125 9.332031 L 8.738281 9.390625 "/>
<path style=" stroke:none;fill-rule:nonzero;fill:rgb(100%,100%,100%);fill-opacity:1;" d="M 8.789062 9.507812 L 8.765625 9.574219 L 8.800781 9.589844 L 8.789062 9.507812 "/>
<path style=" stroke:none;fill-rule:nonzero;fill:rgb(100%,100%,100%);fill-opacity:1;" d="M 8.789062 9.507812 L 8.8125 9.578125 L 8.777344 9.585938 L 8.789062 9.507812 "/>
<path style=" stroke:none;fill-rule:nonzero;fill:rgb(100%,100%,100%);fill-opacity:1;" d="M 8.859375 9.566406 L 8.785156 9.558594 L 8.785156 9.59375 L 8.859375 9.566406 "/>
<path style=" stroke:none;fill-rule:nonzero;fill:rgb(100%,100%,100%);fill-opacity:1;" d="M 8.859375 9.566406 L 8.800781 9.601562 L 8.777344 9.570312 L 8.859375 9.566406 "/>
<path style=" stroke:none;fill-rule:nonzero;fill:rgb(100%,100%,100%);fill-opacity:1;" d="M 8.71875 9.546875 L 8.777344 9.597656 L 8.800781 9.574219 L 8.71875 9.546875 "/>
<path style=" stroke:none;fill-rule:nonzero;fill:rgb(100%,100%,100%);fill-opacity:1;" d="M 8.71875 9.546875 L 8.792969 9.558594 L 8.792969 9.59375 L 8.71875 9.546875 "/>
<path style=" stroke:none;fill-rule:nonzero;fill:rgb(100%,100%,100%);fill-opacity:1;" d="M 8.832031 9.644531 L 8.808594 9.574219 L 8.773438 9.578125 L 8.832031 9.644531 "/>
<path style=" stroke:none;fill-rule:nonzero;fill:rgb(100%,100%,100%);fill-opacity:1;" d="M 8.832031 9.644531 L 8.773438 9.59375 L 8.796875 9.566406 L 8.832031 9.644531 "/>
<path style=" stroke:none;fill-rule:nonzero;fill:rgb(100%,100%,100%);fill-opacity:1;" d="M 8.746094 9.632812 L 8.804688 9.597656 L 8.785156 9.566406 L 8.746094 9.632812 "/>
<path style=" stroke:none;fill-rule:nonzero;fill:rgb(100%,100%,100%);fill-opacity:1;" d="M 8.746094 9.632812 L 8.769531 9.566406 L 8.804688 9.582031 L 8.746094 9.632812 "/>
<path style=" stroke:none;fill-rule:nonzero;fill:rgb(100%,100%,100%);fill-opacity:1;" d="M 9.050781 9.089844 L 9.027344 9.15625 L 9.0625 9.171875 L 9.050781 9.089844 "/>
<path style=" stroke:none;fill-rule:nonzero;fill:rgb(100%,100%,100%);fill-opacity:1;" d="M 9.050781 9.089844 L 9.074219 9.160156 L 9.039062 9.167969 L 9.050781 9.089844 "/>
<path style=" stroke:none;fill-rule:nonzero;fill:rgb(100%,100%,100%);fill-opacity:1;" d="M 9.121094 9.148438 L 9.046875 9.140625 L 9.046875 9.175781 L 9.121094 9.148438 "/>
<path style=" stroke:none;fill-rule:nonzero;fill:rgb(100%,100%,100%);fill-opacity:1;" d="M 9.121094 9.148438 L 9.058594 9.183594 L 9.039062 9.152344 L 9.121094 9.148438 "/>
<path style=" stroke:none;fill-rule:nonzero;fill:rgb(100%,100%,100%);fill-opacity:1;" d="M 8.980469 9.128906 L 9.039062 9.179688 L 9.0625 9.152344 L 8.980469 9.128906 "/>
<path style=" stroke:none;fill-rule:nonzero;fill:rgb(100%,100%,100%);fill-opacity:1;" d="M 8.980469 9.128906 L 9.054688 9.140625 L 9.054688 9.175781 L 8.980469 9.128906 "/>
<path style=" stroke:none;fill-rule:nonzero;fill:rgb(100%,100%,100%);fill-opacity:1;" d="M 9.09375 9.226562 L 9.070312 9.152344 L 9.035156 9.160156 L 9.09375 9.226562 "/>
<path style=" stroke:none;fill-rule:nonzero;fill:rgb(100%,100%,100%);fill-opacity:1;" d="M 9.09375 9.226562 L 9.035156 9.175781 L 9.054688 9.148438 L 9.09375 9.226562 "/>
<path style=" stroke:none;fill-rule:nonzero;fill:rgb(100%,100%,100%);fill-opacity:1;" d="M 9.007812 9.214844 L 9.066406 9.179688 L 9.042969 9.148438 L 9.007812 9.214844 "/>
<path style=" stroke:none;fill-rule:nonzero;fill:rgb(100%,100%,100%);fill-opacity:1;" d="M 9.007812 9.214844 L 9.027344 9.148438 L 9.0625 9.164062 L 9.007812 9.214844 "/>
<path style=" stroke:none;fill-rule:nonzero;fill:rgb(100%,100%,100%);fill-opacity:1;" d="M 9.257812 8.96875 L 9.230469 9.050781 L 9.273438 9.070312 L 9.257812 8.96875 "/>
<path style=" stroke:none;fill-rule:nonzero;fill:rgb(100%,100%,100%);fill-opacity:1;" d="M 9.257812 8.96875 L 9.285156 9.058594 L 9.242188 9.066406 L 9.257812 8.96875 "/>
<path style=" stroke:none;fill-rule:nonzero;fill:rgb(100%,100%,100%);fill-opacity:1;" d="M 9.34375 9.042969 L 9.253906 9.03125 L 9.253906 9.078125 L 9.34375 9.042969 "/>
<path style=" stroke:none;fill-rule:nonzero;fill:rgb(100%,100%,100%);fill-opacity:1;" d="M 9.34375 9.042969 L 9.269531 9.085938 L 9.242188 9.046875 L 9.34375 9.042969 "/>
<path style=" stroke:none;fill-rule:nonzero;fill:rgb(100%,100%,100%);fill-opacity:1;" d="M 9.167969 9.023438 L 9.242188 9.082031 L 9.269531 9.050781 L 9.167969 9.023438 "/>
<path style=" stroke:none;fill-rule:nonzero;fill:rgb(100%,100%,100%);fill-opacity:1;" d="M 9.167969 9.023438 L 9.261719 9.03125 L 9.261719 9.078125 L 9.167969 9.023438 "/>
<path style=" stroke:none;fill-rule:nonzero;fill:rgb(100%,100%,100%);fill-opacity:1;" d="M 9.3125 9.140625 L 9.28125 9.050781 L 9.238281 9.058594 L 9.3125 9.140625 "/>
<path style=" stroke:none;fill-rule:nonzero;fill:rgb(100%,100%,100%);fill-opacity:1;" d="M 9.3125 9.140625 L 9.238281 9.078125 L 9.265625 9.042969 L 9.3125 9.140625 "/>
<path style=" stroke:none;fill-rule:nonzero;fill:rgb(100%,100%,100%);fill-opacity:1;" d="M 9.203125 9.125 L 9.277344 9.082031 L 9.25 9.042969 L 9.203125 9.125 "/>
<path style=" stroke:none;fill-rule:nonzero;fill:rgb(100%,100%,100%);fill-opacity:1;" d="M 9.203125 9.125 L 9.230469 9.042969 L 9.273438 9.0625 L 9.203125 9.125 "/>
<path style=" stroke:none;fill-rule:nonzero;fill:rgb(100%,100%,100%);fill-opacity:1;" d="M 8.78125 9.007812 L 8.761719 9.070312 L 8.796875 9.089844 L 8.78125 9.007812 "/>
<path style=" stroke:none;fill-rule:nonzero;fill:rgb(100%,100%,100%);fill-opacity:1;" d="M 8.78125 9.007812 L 8.804688 9.078125 L 8.769531 9.085938 L 8.78125 9.007812 "/>
<path style=" stroke:none;fill-rule:nonzero;fill:rgb(100%,100%,100%);fill-opacity:1;" d="M 8.851562 9.066406 L 8.777344 9.054688 L 8.777344 9.09375 L 8.851562 9.066406 "/>
<path style=" stroke:none;fill-rule:nonzero;fill:rgb(100%,100%,100%);fill-opacity:1;" d="M 8.851562 9.066406 L 8.792969 9.101562 L 8.773438 9.066406 L 8.851562 9.066406 "/>
<path style=" stroke:none;fill-rule:nonzero;fill:rgb(100%,100%,100%);fill-opacity:1;" d="M 8.710938 9.046875 L 8.773438 9.097656 L 8.792969 9.070312 L 8.710938 9.046875 "/>
<path style=" stroke:none;fill-rule:nonzero;fill:rgb(100%,100%,100%);fill-opacity:1;" d="M 8.710938 9.046875 L 8.785156 9.058594 L 8.785156 9.09375 L 8.710938 9.046875 "/>
<path style=" stroke:none;fill-rule:nonzero;fill:rgb(100%,100%,100%);fill-opacity:1;" d="M 8.824219 9.144531 L 8.804688 9.070312 L 8.769531 9.078125 L 8.824219 9.144531 "/>
<path style=" stroke:none;fill-rule:nonzero;fill:rgb(100%,100%,100%);fill-opacity:1;" d="M 8.824219 9.144531 L 8.765625 9.09375 L 8.789062 9.066406 L 8.824219 9.144531 "/>
<path style=" stroke:none;fill-rule:nonzero;fill:rgb(100%,100%,100%);fill-opacity:1;" d="M 8.738281 9.132812 L 8.800781 9.097656 L 8.777344 9.066406 L 8.738281 9.132812 "/>
<path style=" stroke:none;fill-rule:nonzero;fill:rgb(100%,100%,100%);fill-opacity:1;" d="M 8.738281 9.132812 L 8.761719 9.066406 L 8.796875 9.082031 L 8.738281 9.132812 "/>
<path style=" stroke:none;fill-rule:nonzero;fill:rgb(100%,100%,100%);fill-opacity:1;" d="M 6.515625 7.363281 L 6.488281 7.445312 L 6.53125 7.464844 L 6.515625 7.363281 "/>
<path style=" stroke:none;fill-rule:nonzero;fill:rgb(100%,100%,100%);fill-opacity:1;" d="M 6.515625 7.363281 L 6.542969 7.453125 L 6.5 7.460938 L 6.515625 7.363281 "/>
<path style=" stroke:none;fill-rule:nonzero;fill:rgb(100%,100%,100%);fill-opacity:1;" d="M 6.605469 7.4375 L 6.511719 7.425781 L 6.511719 7.472656 L 6.605469 7.4375 "/>
<path style=" stroke:none;fill-rule:nonzero;fill:rgb(100%,100%,100%);fill-opacity:1;" d="M 6.605469 7.4375 L 6.527344 7.480469 L 6.503906 7.441406 L 6.605469 7.4375 "/>
<path style=" stroke:none;fill-rule:nonzero;fill:rgb(100%,100%,100%);fill-opacity:1;" d="M 6.429688 7.414062 L 6.503906 7.476562 L 6.53125 7.445312 L 6.429688 7.414062 "/>
<path style=" stroke:none;fill-rule:nonzero;fill:rgb(100%,100%,100%);fill-opacity:1;" d="M 6.429688 7.414062 L 6.519531 7.425781 L 6.519531 7.472656 L 6.429688 7.414062 "/>
<path style=" stroke:none;fill-rule:nonzero;fill:rgb(100%,100%,100%);fill-opacity:1;" d="M 6.570312 7.535156 L 6.542969 7.445312 L 6.496094 7.453125 L 6.570312 7.535156 "/>
<path style=" stroke:none;fill-rule:nonzero;fill:rgb(100%,100%,100%);fill-opacity:1;" d="M 6.570312 7.535156 L 6.496094 7.472656 L 6.523438 7.4375 L 6.570312 7.535156 "/>
<path style=" stroke:none;fill-rule:nonzero;fill:rgb(100%,100%,100%);fill-opacity:1;" d="M 6.460938 7.519531 L 6.535156 7.476562 L 6.507812 7.4375 L 6.460938 7.519531 "/>
<path style=" stroke:none;fill-rule:nonzero;fill:rgb(100%,100%,100%);fill-opacity:1;" d="M 6.460938 7.519531 L 6.492188 7.4375 L 6.535156 7.457031 L 6.460938 7.519531 "/>
<path style=" stroke:none;fill-rule:nonzero;fill:rgb(100%,100%,100%);fill-opacity:1;" d="M 8.203125 7.410156 L 8.179688 7.472656 L 8.214844 7.488281 L 8.203125 7.410156 "/>
<path style=" stroke:none;fill-rule:nonzero;fill:rgb(100%,100%,100%);fill-opacity:1;" d="M 8.203125 7.410156 L 8.226562 7.480469 L 8.191406 7.488281 L 8.203125 7.410156 "/>
<path style=" stroke:none;fill-rule:nonzero;fill:rgb(100%,100%,100%);fill-opacity:1;" d="M 8.273438 7.46875 L 8.199219 7.457031 L 8.199219 7.492188 L 8.273438 7.46875 "/>
<path style=" stroke:none;fill-rule:nonzero;fill:rgb(100%,100%,100%);fill-opacity:1;" d="M 8.273438 7.46875 L 8.214844 7.503906 L 8.191406 7.46875 L 8.273438 7.46875 "/>
<path style=" stroke:none;fill-rule:nonzero;fill:rgb(100%,100%,100%);fill-opacity:1;" d="M 8.132812 7.449219 L 8.191406 7.5 L 8.214844 7.472656 L 8.132812 7.449219 "/>
<path style=" stroke:none;fill-rule:nonzero;fill:rgb(100%,100%,100%);fill-opacity:1;" d="M 8.132812 7.449219 L 8.207031 7.457031 L 8.207031 7.496094 L 8.132812 7.449219 "/>
<path style=" stroke:none;fill-rule:nonzero;fill:rgb(100%,100%,100%);fill-opacity:1;" d="M 8.246094 7.546875 L 8.222656 7.472656 L 8.1875 7.480469 L 8.246094 7.546875 "/>
<path style=" stroke:none;fill-rule:nonzero;fill:rgb(100%,100%,100%);fill-opacity:1;" d="M 8.246094 7.546875 L 8.1875 7.492188 L 8.207031 7.46875 L 8.246094 7.546875 "/>
<path style=" stroke:none;fill-rule:nonzero;fill:rgb(100%,100%,100%);fill-opacity:1;" d="M 8.160156 7.53125 L 8.21875 7.5 L 8.199219 7.464844 L 8.160156 7.53125 "/>
<path style=" stroke:none;fill-rule:nonzero;fill:rgb(100%,100%,100%);fill-opacity:1;" d="M 8.160156 7.53125 L 8.183594 7.46875 L 8.21875 7.484375 L 8.160156 7.53125 "/>
<path style=" stroke:none;fill-rule:nonzero;fill:rgb(100%,100%,100%);fill-opacity:1;" d="M 7.5 8.523438 L 7.464844 8.621094 L 7.519531 8.644531 L 7.5 8.523438 "/>
<path style=" stroke:none;fill-rule:nonzero;fill:rgb(100%,100%,100%);fill-opacity:1;" d="M 7.5 8.523438 L 7.535156 8.632812 L 7.480469 8.640625 L 7.5 8.523438 "/>
<path style=" stroke:none;fill-rule:nonzero;fill:rgb(100%,100%,100%);fill-opacity:1;" d="M 7.605469 8.613281 L 7.496094 8.597656 L 7.496094 8.652344 L 7.605469 8.613281 "/>
<path style=" stroke:none;fill-rule:nonzero;fill:rgb(100%,100%,100%);fill-opacity:1;" d="M 7.605469 8.613281 L 7.515625 8.664062 L 7.484375 8.617188 L 7.605469 8.613281 "/>
<path style=" stroke:none;fill-rule:nonzero;fill:rgb(100%,100%,100%);fill-opacity:1;" d="M 7.394531 8.582031 L 7.484375 8.660156 L 7.515625 8.621094 L 7.394531 8.582031 "/>
<path style=" stroke:none;fill-rule:nonzero;fill:rgb(100%,100%,100%);fill-opacity:1;" d="M 7.394531 8.582031 L 7.503906 8.597656 L 7.503906 8.652344 L 7.394531 8.582031 "/>
<path style=" stroke:none;fill-rule:nonzero;fill:rgb(100%,100%,100%);fill-opacity:1;" d="M 7.566406 8.730469 L 7.53125 8.621094 L 7.476562 8.628906 L 7.566406 8.730469 "/>
<path style=" stroke:none;fill-rule:nonzero;fill:rgb(100%,100%,100%);fill-opacity:1;" d="M 7.566406 8.730469 L 7.476562 8.652344 L 7.507812 8.613281 L 7.566406 8.730469 "/>
<path style=" stroke:none;fill-rule:nonzero;fill:rgb(100%,100%,100%);fill-opacity:1;" d="M 7.433594 8.707031 L 7.523438 8.660156 L 7.492188 8.609375 L 7.433594 8.707031 "/>
<path style=" stroke:none;fill-rule:nonzero;fill:rgb(100%,100%,100%);fill-opacity:1;" d="M 7.433594 8.707031 L 7.46875 8.613281 L 7.523438 8.636719 L 7.433594 8.707031 "/>
<path style=" stroke:none;fill-rule:nonzero;fill:rgb(100%,100%,100%);fill-opacity:1;" d="M 7.796875 8.085938 L 7.769531 8.167969 L 7.8125 8.1875 L 7.796875 8.085938 "/>
<path style=" stroke:none;fill-rule:nonzero;fill:rgb(100%,100%,100%);fill-opacity:1;" d="M 7.796875 8.085938 L 7.828125 8.175781 L 7.785156 8.183594 L 7.796875 8.085938 "/>
<path style=" stroke:none;fill-rule:nonzero;fill:rgb(100%,100%,100%);fill-opacity:1;" d="M 7.886719 8.164062 L 7.792969 8.148438 L 7.792969 8.195312 L 7.886719 8.164062 "/>
<path style=" stroke:none;fill-rule:nonzero;fill:rgb(100%,100%,100%);fill-opacity:1;" d="M 7.886719 8.164062 L 7.8125 8.203125 L 7.785156 8.164062 L 7.886719 8.164062 "/>
<path style=" stroke:none;fill-rule:nonzero;fill:rgb(100%,100%,100%);fill-opacity:1;" d="M 7.710938 8.136719 L 7.785156 8.199219 L 7.8125 8.167969 L 7.710938 8.136719 "/>
<path style=" stroke:none;fill-rule:nonzero;fill:rgb(100%,100%,100%);fill-opacity:1;" d="M 7.710938 8.136719 L 7.804688 8.148438 L 7.804688 8.195312 L 7.710938 8.136719 "/>
<path style=" stroke:none;fill-rule:nonzero;fill:rgb(100%,100%,100%);fill-opacity:1;" d="M 7.851562 8.257812 L 7.824219 8.167969 L 7.78125 8.175781 L 7.851562 8.257812 "/>
<path style=" stroke:none;fill-rule:nonzero;fill:rgb(100%,100%,100%);fill-opacity:1;" d="M 7.851562 8.257812 L 7.777344 8.195312 L 7.804688 8.160156 L 7.851562 8.257812 "/>
<path style=" stroke:none;fill-rule:nonzero;fill:rgb(100%,100%,100%);fill-opacity:1;" d="M 7.746094 8.242188 L 7.820312 8.199219 L 7.792969 8.160156 L 7.746094 8.242188 "/>
<path style=" stroke:none;fill-rule:nonzero;fill:rgb(100%,100%,100%);fill-opacity:1;" d="M 7.746094 8.242188 L 7.773438 8.160156 L 7.816406 8.179688 L 7.746094 8.242188 "/>
<path style=" stroke:none;fill-rule:nonzero;fill:rgb(100%,100%,100%);fill-opacity:1;" d="M 7.5 7.816406 L 7.472656 7.894531 L 7.515625 7.917969 L 7.5 7.816406 "/>
<path style=" stroke:none;fill-rule:nonzero;fill:rgb(100%,100%,100%);fill-opacity:1;" d="M 7.5 7.816406 L 7.527344 7.90625 L 7.484375 7.910156 L 7.5 7.816406 "/>
<path style=" stroke:none;fill-rule:nonzero;fill:rgb(100%,100%,100%);fill-opacity:1;" d="M 7.585938 7.890625 L 7.496094 7.875 L 7.496094 7.921875 L 7.585938 7.890625 "/>
<path style=" stroke:none;fill-rule:nonzero;fill:rgb(100%,100%,100%);fill-opacity:1;" d="M 7.585938 7.890625 L 7.511719 7.933594 L 7.484375 7.890625 L 7.585938 7.890625 "/>
<path style=" stroke:none;fill-rule:nonzero;fill:rgb(100%,100%,100%);fill-opacity:1;" d="M 7.414062 7.863281 L 7.488281 7.925781 L 7.515625 7.894531 L 7.414062 7.863281 "/>
<path style=" stroke:none;fill-rule:nonzero;fill:rgb(100%,100%,100%);fill-opacity:1;" d="M 7.414062 7.863281 L 7.503906 7.878906 L 7.503906 7.921875 L 7.414062 7.863281 "/>
<path style=" stroke:none;fill-rule:nonzero;fill:rgb(100%,100%,100%);fill-opacity:1;" d="M 7.554688 7.984375 L 7.527344 7.894531 L 7.480469 7.902344 L 7.554688 7.984375 "/>
<path style=" stroke:none;fill-rule:nonzero;fill:rgb(100%,100%,100%);fill-opacity:1;" d="M 7.554688 7.984375 L 7.480469 7.921875 L 7.507812 7.890625 L 7.554688 7.984375 "/>
<path style=" stroke:none;fill-rule:nonzero;fill:rgb(100%,100%,100%);fill-opacity:1;" d="M 7.445312 7.96875 L 7.519531 7.925781 L 7.492188 7.886719 L 7.445312 7.96875 "/>
<path style=" stroke:none;fill-rule:nonzero;fill:rgb(100%,100%,100%);fill-opacity:1;" d="M 7.445312 7.96875 L 7.472656 7.886719 L 7.519531 7.910156 L 7.445312 7.96875 "/>
<path style=" stroke:none;fill-rule:nonzero;fill:rgb(100%,100%,100%);fill-opacity:1;" d="M 7.238281 8.019531 L 7.21875 8.082031 L 7.253906 8.101562 L 7.238281 8.019531 "/>
<path style=" stroke:none;fill-rule:nonzero;fill:rgb(100%,100%,100%);fill-opacity:1;" d="M 7.238281 8.019531 L 7.261719 8.089844 L 7.226562 8.097656 L 7.238281 8.019531 "/>
<path style=" stroke:none;fill-rule:nonzero;fill:rgb(100%,100%,100%);fill-opacity:1;" d="M 7.308594 8.078125 L 7.234375 8.066406 L 7.234375 8.105469 L 7.308594 8.078125 "/>
<path style=" stroke:none;fill-rule:nonzero;fill:rgb(100%,100%,100%);fill-opacity:1;" d="M 7.308594 8.078125 L 7.25 8.113281 L 7.230469 8.078125 L 7.308594 8.078125 "/>
<path style=" stroke:none;fill-rule:nonzero;fill:rgb(100%,100%,100%);fill-opacity:1;" d="M 7.167969 8.058594 L 7.230469 8.109375 L 7.25 8.082031 L 7.167969 8.058594 "/>
<path style=" stroke:none;fill-rule:nonzero;fill:rgb(100%,100%,100%);fill-opacity:1;" d="M 7.167969 8.058594 L 7.242188 8.070312 L 7.242188 8.105469 L 7.167969 8.058594 "/>
<path style=" stroke:none;fill-rule:nonzero;fill:rgb(100%,100%,100%);fill-opacity:1;" d="M 7.285156 8.15625 L 7.261719 8.082031 L 7.226562 8.089844 L 7.285156 8.15625 "/>
<path style=" stroke:none;fill-rule:nonzero;fill:rgb(100%,100%,100%);fill-opacity:1;" d="M 7.285156 8.15625 L 7.222656 8.105469 L 7.246094 8.078125 L 7.285156 8.15625 "/>
<path style=" stroke:none;fill-rule:nonzero;fill:rgb(100%,100%,100%);fill-opacity:1;" d="M 7.195312 8.140625 L 7.257812 8.109375 L 7.234375 8.078125 L 7.195312 8.140625 "/>
<path style=" stroke:none;fill-rule:nonzero;fill:rgb(100%,100%,100%);fill-opacity:1;" d="M 7.195312 8.140625 L 7.21875 8.078125 L 7.253906 8.09375 L 7.195312 8.140625 "/>
<path style=" stroke:none;fill-rule:nonzero;fill:rgb(100%,100%,100%);fill-opacity:1;" d="M 7.371094 8.234375 L 7.355469 8.28125 L 7.378906 8.292969 L 7.371094 8.234375 "/>
<path style=" stroke:none;fill-rule:nonzero;fill:rgb(100%,100%,100%);fill-opacity:1;" d="M 7.371094 8.234375 L 7.386719 8.285156 L 7.359375 8.289062 L 7.371094 8.234375 "/>
<path style=" stroke:none;fill-rule:nonzero;fill:rgb(100%,100%,100%);fill-opacity:1;" d="M 7.421875 8.277344 L 7.367188 8.269531 L 7.367188 8.296875 L 7.421875 8.277344 "/>
<path style=" stroke:none;fill-rule:nonzero;fill:rgb(100%,100%,100%);fill-opacity:1;" d="M 7.421875 8.277344 L 7.378906 8.300781 L 7.363281 8.277344 L 7.421875 8.277344 "/>
<path style=" stroke:none;fill-rule:nonzero;fill:rgb(100%,100%,100%);fill-opacity:1;" d="M 7.320312 8.261719 L 7.363281 8.296875 L 7.378906 8.28125 L 7.320312 8.261719 "/>
<path style=" stroke:none;fill-rule:nonzero;fill:rgb(100%,100%,100%);fill-opacity:1;" d="M 7.320312 8.261719 L 7.371094 8.269531 L 7.371094 8.296875 L 7.320312 8.261719 "/>
<path style=" stroke:none;fill-rule:nonzero;fill:rgb(100%,100%,100%);fill-opacity:1;" d="M 7.402344 8.332031 L 7.382812 8.28125 L 7.359375 8.285156 L 7.402344 8.332031 "/>
<path style=" stroke:none;fill-rule:nonzero;fill:rgb(100%,100%,100%);fill-opacity:1;" d="M 7.402344 8.332031 L 7.359375 8.296875 L 7.375 8.277344 L 7.402344 8.332031 "/>
<path style=" stroke:none;fill-rule:nonzero;fill:rgb(100%,100%,100%);fill-opacity:1;" d="M 7.339844 8.324219 L 7.382812 8.296875 L 7.367188 8.277344 L 7.339844 8.324219 "/>
<path style=" stroke:none;fill-rule:nonzero;fill:rgb(100%,100%,100%);fill-opacity:1;" d="M 7.339844 8.324219 L 7.355469 8.277344 L 7.378906 8.289062 L 7.339844 8.324219 "/>
<path style=" stroke:none;fill-rule:nonzero;fill:rgb(100%,100%,100%);fill-opacity:1;" d="M 8.273438 9.226562 L 8.246094 9.304688 L 8.289062 9.328125 L 8.273438 9.226562 "/>
<path style=" stroke:none;fill-rule:nonzero;fill:rgb(100%,100%,100%);fill-opacity:1;" d="M 8.273438 9.226562 L 8.300781 9.316406 L 8.257812 9.320312 L 8.273438 9.226562 "/>
<path style=" stroke:none;fill-rule:nonzero;fill:rgb(100%,100%,100%);fill-opacity:1;" d="M 8.359375 9.300781 L 8.269531 9.285156 L 8.269531 9.332031 L 8.359375 9.300781 "/>
<path style=" stroke:none;fill-rule:nonzero;fill:rgb(100%,100%,100%);fill-opacity:1;" d="M 8.359375 9.300781 L 8.285156 9.34375 L 8.257812 9.300781 L 8.359375 9.300781 "/>
<path style=" stroke:none;fill-rule:nonzero;fill:rgb(100%,100%,100%);fill-opacity:1;" d="M 8.183594 9.273438 L 8.261719 9.339844 L 8.289062 9.304688 L 8.183594 9.273438 "/>
<path style=" stroke:none;fill-rule:nonzero;fill:rgb(100%,100%,100%);fill-opacity:1;" d="M 8.183594 9.273438 L 8.277344 9.289062 L 8.277344 9.332031 L 8.183594 9.273438 "/>
<path style=" stroke:none;fill-rule:nonzero;fill:rgb(100%,100%,100%);fill-opacity:1;" d="M 8.328125 9.394531 L 8.300781 9.304688 L 8.253906 9.3125 L 8.328125 9.394531 "/>
<path style=" stroke:none;fill-rule:nonzero;fill:rgb(100%,100%,100%);fill-opacity:1;" d="M 8.328125 9.394531 L 8.253906 9.332031 L 8.28125 9.300781 L 8.328125 9.394531 "/>
<path style=" stroke:none;fill-rule:nonzero;fill:rgb(100%,100%,100%);fill-opacity:1;" d="M 8.21875 9.378906 L 8.292969 9.339844 L 8.265625 9.296875 L 8.21875 9.378906 "/>
<path style=" stroke:none;fill-rule:nonzero;fill:rgb(100%,100%,100%);fill-opacity:1;" d="M 8.21875 9.378906 L 8.246094 9.296875 L 8.292969 9.320312 L 8.21875 9.378906 "/>
<path style=" stroke:none;fill-rule:nonzero;fill:rgb(100%,100%,100%);fill-opacity:1;" d="M 8.496094 9.050781 L 8.472656 9.117188 L 8.507812 9.132812 L 8.496094 9.050781 "/>
<path style=" stroke:none;fill-rule:nonzero;fill:rgb(100%,100%,100%);fill-opacity:1;" d="M 8.496094 9.050781 L 8.515625 9.125 L 8.480469 9.128906 L 8.496094 9.050781 "/>
<path style=" stroke:none;fill-rule:nonzero;fill:rgb(100%,100%,100%);fill-opacity:1;" d="M 8.566406 9.113281 L 8.492188 9.101562 L 8.492188 9.136719 L 8.566406 9.113281 "/>
<path style=" stroke:none;fill-rule:nonzero;fill:rgb(100%,100%,100%);fill-opacity:1;" d="M 8.566406 9.113281 L 8.503906 9.144531 L 8.484375 9.113281 L 8.566406 9.113281 "/>
<path style=" stroke:none;fill-rule:nonzero;fill:rgb(100%,100%,100%);fill-opacity:1;" d="M 8.425781 9.09375 L 8.484375 9.144531 L 8.503906 9.117188 L 8.425781 9.09375 "/>
<path style=" stroke:none;fill-rule:nonzero;fill:rgb(100%,100%,100%);fill-opacity:1;" d="M 8.425781 9.09375 L 8.5 9.101562 L 8.5 9.136719 L 8.425781 9.09375 "/>
<path style=" stroke:none;fill-rule:nonzero;fill:rgb(100%,100%,100%);fill-opacity:1;" d="M 8.539062 9.1875 L 8.515625 9.117188 L 8.480469 9.125 L 8.539062 9.1875 "/>
<path style=" stroke:none;fill-rule:nonzero;fill:rgb(100%,100%,100%);fill-opacity:1;" d="M 8.539062 9.1875 L 8.476562 9.136719 L 8.5 9.113281 L 8.539062 9.1875 "/>
<path style=" stroke:none;fill-rule:nonzero;fill:rgb(100%,100%,100%);fill-opacity:1;" d="M 8.449219 9.175781 L 8.511719 9.144531 L 8.488281 9.109375 L 8.449219 9.175781 "/>
<path style=" stroke:none;fill-rule:nonzero;fill:rgb(100%,100%,100%);fill-opacity:1;" d="M 8.449219 9.175781 L 8.472656 9.109375 L 8.507812 9.128906 L 8.449219 9.175781 "/>
<path style=" stroke:none;fill-rule:nonzero;fill:rgb(100%,100%,100%);fill-opacity:1;" d="M 8.070312 8.929688 L 8.046875 8.992188 L 8.082031 9.007812 L 8.070312 8.929688 "/>
<path style=" stroke:none;fill-rule:nonzero;fill:rgb(100%,100%,100%);fill-opacity:1;" d="M 8.070312 8.929688 L 8.09375 9 L 8.058594 9.003906 L 8.070312 8.929688 "/>
<path style=" stroke:none;fill-rule:nonzero;fill:rgb(100%,100%,100%);fill-opacity:1;" d="M 8.140625 8.988281 L 8.066406 8.976562 L 8.066406 9.011719 L 8.140625 8.988281 "/>
<path style=" stroke:none;fill-rule:nonzero;fill:rgb(100%,100%,100%);fill-opacity:1;" d="M 8.140625 8.988281 L 8.078125 9.023438 L 8.058594 8.988281 L 8.140625 8.988281 "/>
<path style=" stroke:none;fill-rule:nonzero;fill:rgb(100%,100%,100%);fill-opacity:1;" d="M 8 8.96875 L 8.058594 9.019531 L 8.082031 8.992188 L 8 8.96875 "/>
<path style=" stroke:none;fill-rule:nonzero;fill:rgb(100%,100%,100%);fill-opacity:1;" d="M 8 8.96875 L 8.074219 8.976562 L 8.074219 9.015625 L 8 8.96875 "/>
<path style=" stroke:none;fill-rule:nonzero;fill:rgb(100%,100%,100%);fill-opacity:1;" d="M 8.113281 9.066406 L 8.089844 8.992188 L 8.054688 9 L 8.113281 9.066406 "/>
<path style=" stroke:none;fill-rule:nonzero;fill:rgb(100%,100%,100%);fill-opacity:1;" d="M 8.113281 9.066406 L 8.054688 9.011719 L 8.074219 8.988281 L 8.113281 9.066406 "/>
<path style=" stroke:none;fill-rule:nonzero;fill:rgb(100%,100%,100%);fill-opacity:1;" d="M 8.027344 9.050781 L 8.085938 9.019531 L 8.0625 8.984375 L 8.027344 9.050781 "/>
<path style=" stroke:none;fill-rule:nonzero;fill:rgb(100%,100%,100%);fill-opacity:1;" d="M 8.027344 9.050781 L 8.046875 8.988281 L 8.082031 9.003906 L 8.027344 9.050781 "/>
<path style=" stroke:none;fill-rule:nonzero;fill:rgb(100%,100%,100%);fill-opacity:1;" d="M 6.464844 8.574219 L 6.429688 8.671875 L 6.480469 8.695312 L 6.464844 8.574219 "/>
<path style=" stroke:none;fill-rule:nonzero;fill:rgb(100%,100%,100%);fill-opacity:1;" d="M 6.464844 8.574219 L 6.496094 8.679688 L 6.445312 8.691406 L 6.464844 8.574219 "/>
<path style=" stroke:none;fill-rule:nonzero;fill:rgb(100%,100%,100%);fill-opacity:1;" d="M 6.570312 8.664062 L 6.457031 8.648438 L 6.457031 8.699219 L 6.570312 8.664062 "/>
<path style=" stroke:none;fill-rule:nonzero;fill:rgb(100%,100%,100%);fill-opacity:1;" d="M 6.570312 8.664062 L 6.480469 8.714844 L 6.445312 8.664062 L 6.570312 8.664062 "/>
<path style=" stroke:none;fill-rule:nonzero;fill:rgb(100%,100%,100%);fill-opacity:1;" d="M 6.359375 8.632812 L 6.449219 8.710938 L 6.480469 8.667969 L 6.359375 8.632812 "/>
<path style=" stroke:none;fill-rule:nonzero;fill:rgb(100%,100%,100%);fill-opacity:1;" d="M 6.359375 8.632812 L 6.46875 8.648438 L 6.46875 8.703125 L 6.359375 8.632812 "/>
<path style=" stroke:none;fill-rule:nonzero;fill:rgb(100%,100%,100%);fill-opacity:1;" d="M 6.527344 8.777344 L 6.492188 8.671875 L 6.441406 8.679688 L 6.527344 8.777344 "/>
<path style=" stroke:none;fill-rule:nonzero;fill:rgb(100%,100%,100%);fill-opacity:1;" d="M 6.527344 8.777344 L 6.4375 8.703125 L 6.472656 8.664062 L 6.527344 8.777344 "/>
<path style=" stroke:none;fill-rule:nonzero;fill:rgb(100%,100%,100%);fill-opacity:1;" d="M 6.398438 8.757812 L 6.488281 8.707031 L 6.457031 8.660156 L 6.398438 8.757812 "/>
<path style=" stroke:none;fill-rule:nonzero;fill:rgb(100%,100%,100%);fill-opacity:1;" d="M 6.398438 8.757812 L 6.433594 8.660156 L 6.484375 8.6875 L 6.398438 8.757812 "/>
<path style=" stroke:none;fill-rule:nonzero;fill:rgb(100%,100%,100%);fill-opacity:1;" d="M 7.5 9.433594 L 7.488281 9.46875 L 7.507812 9.476562 L 7.5 9.433594 "/>
<path style=" stroke:none;fill-rule:nonzero;fill:rgb(100%,100%,100%);fill-opacity:1;" d="M 7.5 9.433594 L 7.511719 9.472656 L 7.492188 9.472656 L 7.5 9.433594 "/>
<path style=" stroke:none;fill-rule:nonzero;fill:rgb(100%,100%,100%);fill-opacity:1;" d="M 7.535156 9.464844 L 7.5 9.460938 L 7.5 9.476562 L 7.535156 9.464844 "/>
<path style=" stroke:none;fill-rule:nonzero;fill:rgb(100%,100%,100%);fill-opacity:1;" d="M 7.535156 9.464844 L 7.503906 9.480469 L 7.496094 9.464844 L 7.535156 9.464844 "/>
<path style=" stroke:none;fill-rule:nonzero;fill:rgb(100%,100%,100%);fill-opacity:1;" d="M 7.464844 9.453125 L 7.496094 9.480469 L 7.503906 9.46875 L 7.464844 9.453125 "/>
<path style=" stroke:none;fill-rule:nonzero;fill:rgb(100%,100%,100%);fill-opacity:1;" d="M 7.464844 9.453125 L 7.5 9.460938 L 7.5 9.480469 L 7.464844 9.453125 "/>
<path style=" stroke:none;fill-rule:nonzero;fill:rgb(100%,100%,100%);fill-opacity:1;" d="M 7.523438 9.503906 L 7.511719 9.46875 L 7.492188 9.46875 L 7.523438 9.503906 "/>
<path style=" stroke:none;fill-rule:nonzero;fill:rgb(100%,100%,100%);fill-opacity:1;" d="M 7.523438 9.503906 L 7.492188 9.476562 L 7.503906 9.464844 L 7.523438 9.503906 "/>
<path style=" stroke:none;fill-rule:nonzero;fill:rgb(100%,100%,100%);fill-opacity:1;" d="M 7.476562 9.496094 L 7.507812 9.480469 L 7.496094 9.464844 L 7.476562 9.496094 "/>
<path style=" stroke:none;fill-rule:nonzero;fill:rgb(100%,100%,100%);fill-opacity:1;" d="M 7.476562 9.496094 L 7.488281 9.464844 L 7.507812 9.472656 L 7.476562 9.496094 "/>
<use xlink:href="#surface5" mask="url(#mask0)"/>
</g>
</svg>
