<?xml version="1.0" encoding="UTF-8"?>
<svg xmlns="http://www.w3.org/2000/svg" xmlns:xlink="http://www.w3.org/1999/xlink" width="15px" height="15px" viewBox="0 0 15 15" version="1.1">
<defs>
<filter id="alpha" filterUnits="objectBoundingBox" x="0%" y="0%" width="100%" height="100%">
  <feColorMatrix type="matrix" in="SourceGraphic" values="0 0 0 0 1 0 0 0 0 1 0 0 0 0 1 0 0 0 1 0"/>
</filter>
<mask id="mask0">
  <g filter="url(#alpha)">
<rect x="0" y="0" width="15" height="15" style="fill:rgb(0%,0%,0%);fill-opacity:0.2;stroke:none;"/>
  </g>
</mask>
<clipPath id="clip1">
  <rect x="0" y="0" width="15" height="15"/>
</clipPath>
<g id="surface5" clip-path="url(#clip1)">
<path style=" stroke:none;fill-rule:nonzero;fill:rgb(10.196079%,10.196079%,10.196079%);fill-opacity:1;" d="M 0.121094 2.929688 C 2.683594 1.652344 5.234375 2.113281 7.820312 2.507812 C 10.148438 2.867188 12.5 3.179688 14.878906 1.992188 L 14.878906 12.070312 C 12.316406 13.347656 9.765625 12.886719 7.179688 12.492188 C 4.851562 12.132812 2.5 11.820312 0.121094 13.007812 L 0.121094 2.929688 M 0.589844 3.21875 L 0.589844 12.285156 C 5.1875 10.363281 9.757812 13.726562 14.410156 11.78125 L 14.410156 2.714844 C 9.8125 4.636719 5.242188 1.273438 0.589844 3.21875 "/>
</g>
</defs>
<g id="surface1">
<path style=" stroke:none;fill-rule:nonzero;fill:rgb(0%,0%,0%);fill-opacity:1;" d="M 0.121094 2.929688 C 2.683594 1.652344 5.234375 2.113281 7.820312 2.507812 C 10.148438 2.867188 12.5 3.179688 14.878906 1.992188 L 14.878906 12.070312 C 12.316406 13.347656 9.765625 12.886719 7.179688 12.492188 C 4.851562 12.132812 2.5 11.820312 0.121094 13.007812 L 0.121094 2.929688 "/>
<path style=" stroke:none;fill-rule:nonzero;fill:rgb(86.666667%,0%,0%);fill-opacity:1;" d="M 0.121094 6.289062 C 2.683594 5.011719 5.234375 5.472656 7.820312 5.871094 C 10.148438 6.226562 12.5 6.539062 14.878906 5.351562 L 14.878906 12.070312 C 12.316406 13.347656 9.765625 12.886719 7.179688 12.492188 C 4.851562 12.132812 2.5 11.820312 0.121094 13.007812 L 0.121094 6.289062 "/>
<path style=" stroke:none;fill-rule:nonzero;fill:rgb(100%,80.784315%,0%);fill-opacity:1;" d="M 0.121094 9.648438 C 2.683594 8.371094 5.234375 8.832031 7.820312 9.230469 C 10.148438 9.585938 12.5 9.898438 14.878906 8.710938 L 14.878906 12.070312 C 12.316406 13.347656 9.765625 12.886719 7.179688 12.492188 C 4.851562 12.132812 2.5 11.820312 0.121094 13.007812 L 0.121094 9.648438 "/>
<use xlink:href="#surface5" mask="url(#mask0)"/>
</g>
</svg>
