<?xml version="1.0" encoding="UTF-8"?>
<svg xmlns="http://www.w3.org/2000/svg" xmlns:xlink="http://www.w3.org/1999/xlink" width="15px" height="15px" viewBox="0 0 15 15" version="1.1">
<defs>
<filter id="alpha" filterUnits="objectBoundingBox" x="0%" y="0%" width="100%" height="100%">
  <feColorMatrix type="matrix" in="SourceGraphic" values="0 0 0 0 1 0 0 0 0 1 0 0 0 0 1 0 0 0 1 0"/>
</filter>
<mask id="mask0">
  <g filter="url(#alpha)">
<rect x="0" y="0" width="15" height="15" style="fill:rgb(0%,0%,0%);fill-opacity:0.2;stroke:none;"/>
  </g>
</mask>
<clipPath id="clip1">
  <rect x="0" y="0" width="15" height="15"/>
</clipPath>
<g id="surface5" clip-path="url(#clip1)">
<path style=" stroke:none;fill-rule:nonzero;fill:rgb(10.196079%,10.196079%,10.196079%);fill-opacity:1;" d="M 0.121094 2.929688 C 2.683594 1.652344 5.234375 2.113281 7.820312 2.507812 C 10.148438 2.867188 12.5 3.179688 14.878906 1.992188 L 14.878906 12.070312 C 12.316406 13.347656 9.765625 12.886719 7.179688 12.492188 C 4.851562 12.132812 2.5 11.820312 0.121094 13.007812 L 0.121094 2.929688 M 0.589844 3.21875 L 0.589844 12.285156 C 5.1875 10.363281 9.757812 13.726562 14.410156 11.78125 L 14.410156 2.714844 C 9.8125 4.636719 5.242188 1.273438 0.589844 3.21875 "/>
</g>
</defs>
<g id="surface1">
<path style=" stroke:none;fill-rule:nonzero;fill:rgb(0%,16.862746%,49.803922%);fill-opacity:1;" d="M 0.121094 2.929688 C 2.683594 1.652344 5.234375 2.113281 7.820312 2.507812 C 10.148438 2.867188 12.5 3.179688 14.878906 1.992188 L 14.878906 12.070312 C 12.316406 13.347656 9.765625 12.886719 7.179688 12.492188 C 4.851562 12.132812 2.5 11.820312 0.121094 13.007812 L 0.121094 2.929688 "/>
<path style=" stroke:none;fill-rule:nonzero;fill:rgb(98.823529%,81.960785%,8.627451%);fill-opacity:1;" d="M 5.039062 2.140625 C 8.269531 2.40625 11.554688 3.648438 14.878906 1.992188 L 14.878906 12.070312 C 11.621094 13.699219 8.394531 12.496094 5.039062 12.21875 L 5.039062 2.140625 "/>
<path style=" stroke:none;fill-rule:nonzero;fill:rgb(80.784315%,6.666667%,14.901961%);fill-opacity:1;" d="M 9.960938 2.78125 C 11.582031 2.914062 13.210938 2.824219 14.878906 1.992188 L 14.878906 12.070312 C 13.253906 12.882812 11.632812 12.996094 9.960938 12.859375 L 9.960938 2.78125 "/>
<use xlink:href="#surface5" mask="url(#mask0)"/>
</g>
</svg>
