<?xml version="1.0" encoding="UTF-8"?>
<svg xmlns="http://www.w3.org/2000/svg" xmlns:xlink="http://www.w3.org/1999/xlink" width="15px" height="15px" viewBox="0 0 15 15" version="1.1">
<defs>
<filter id="alpha" filterUnits="objectBoundingBox" x="0%" y="0%" width="100%" height="100%">
  <feColorMatrix type="matrix" in="SourceGraphic" values="0 0 0 0 1 0 0 0 0 1 0 0 0 0 1 0 0 0 1 0"/>
</filter>
<mask id="mask0">
  <g filter="url(#alpha)">
<rect x="0" y="0" width="15" height="15" style="fill:rgb(0%,0%,0%);fill-opacity:0.2;stroke:none;"/>
  </g>
</mask>
<clipPath id="clip1">
  <rect x="0" y="0" width="15" height="15"/>
</clipPath>
<g id="surface5" clip-path="url(#clip1)">
<path style=" stroke:none;fill-rule:nonzero;fill:rgb(10.196079%,10.196079%,10.196079%);fill-opacity:1;" d="M 0.121094 2.929688 C 2.683594 1.652344 5.234375 2.113281 7.820312 2.507812 C 10.148438 2.867188 12.5 3.179688 14.878906 1.992188 L 14.878906 12.070312 C 12.316406 13.347656 9.765625 12.886719 7.179688 12.492188 C 4.851562 12.132812 2.5 11.820312 0.121094 13.007812 L 0.121094 2.929688 M 0.589844 3.21875 L 0.589844 12.285156 C 5.1875 10.363281 9.757812 13.726562 14.410156 11.78125 L 14.410156 2.714844 C 9.8125 4.636719 5.242188 1.273438 0.589844 3.21875 "/>
</g>
</defs>
<g id="surface1">
<path style=" stroke:none;fill-rule:nonzero;fill:rgb(0%,14.117648%,49.019608%);fill-opacity:1;" d="M 0.121094 2.929688 L 0.121094 13.007812 C 2.683594 11.730469 5.234375 12.191406 7.820312 12.589844 C 10.148438 12.945312 12.5 13.257812 14.878906 12.070312 L 14.878906 1.992188 C 12.316406 3.269531 9.765625 2.808594 7.179688 2.410156 C 4.851562 2.054688 2.5 1.742188 0.121094 2.929688 "/>
<path style=" stroke:none;fill-rule:nonzero;fill:rgb(100%,100%,100%);fill-opacity:1;" d="M 0.121094 2.929688 C 0.664062 2.65625 1.210938 2.460938 1.769531 2.328125 C 3.660156 3.167969 5.550781 4.738281 7.5 6.375 C 9.390625 5.375 11.285156 4.386719 13.230469 2.59375 C 13.773438 2.460938 14.320312 2.269531 14.878906 1.992188 L 14.878906 3.117188 C 12.988281 5.355469 11.097656 6.644531 9.148438 7.738281 C 11.035156 9.253906 12.933594 10.585938 14.878906 10.945312 L 14.878906 12.070312 C 14.335938 12.34375 13.789062 12.539062 13.230469 12.671875 C 11.339844 11.832031 9.449219 10.261719 7.5 8.625 C 5.609375 9.625 3.714844 10.613281 1.769531 12.40625 C 1.226562 12.539062 0.679688 12.730469 0.121094 13.007812 L 0.121094 11.882812 C 2.011719 9.644531 3.902344 8.355469 5.851562 7.261719 C 3.964844 5.746094 2.066406 4.414062 0.121094 4.054688 L 0.121094 2.929688 "/>
<path style=" stroke:none;fill-rule:nonzero;fill:rgb(81.176472%,7.843138%,16.862746%);fill-opacity:1;" d="M 7.5 7.5 L 7.5 6.75 C 9.570312 5.65625 11.648438 4.574219 13.78125 2.4375 C 14.144531 2.324219 14.503906 2.179688 14.878906 1.992188 C 12.441406 4.875 10.011719 6.175781 7.5 7.5 L 8.601562 7.664062 C 10.667969 9.367188 12.75 10.929688 14.878906 11.320312 L 14.878906 12.070312 C 12.441406 11.625 10.011719 9.605469 7.5 7.5 L 7.5 8.25 C 5.429688 9.34375 3.351562 10.425781 1.21875 12.5625 C 0.855469 12.675781 0.496094 12.820312 0.121094 13.007812 C 2.558594 10.125 4.988281 8.824219 7.5 7.5 L 6.398438 7.335938 C 4.332031 5.632812 2.25 4.070312 0.121094 3.679688 L 0.121094 2.929688 C 2.558594 3.375 4.988281 5.394531 7.5 7.5 "/>
<path style=" stroke:none;fill-rule:nonzero;fill:rgb(100%,100%,100%);fill-opacity:1;" d="M 8.730469 2.644531 L 8.730469 6.003906 C 10.753906 6.277344 12.792969 6.390625 14.878906 5.351562 L 14.878906 8.710938 C 12.847656 9.726562 10.824219 9.648438 8.730469 9.363281 L 8.730469 12.722656 C 7.917969 12.613281 7.105469 12.472656 6.269531 12.355469 L 6.269531 8.996094 C 4.246094 8.722656 2.207031 8.609375 0.121094 9.648438 L 0.121094 6.289062 C 2.152344 5.273438 4.175781 5.351562 6.269531 5.636719 L 6.269531 2.277344 C 7.082031 2.386719 7.894531 2.527344 8.730469 2.644531 "/>
<path style=" stroke:none;fill-rule:nonzero;fill:rgb(81.176472%,7.843138%,16.862746%);fill-opacity:1;" d="M 8.238281 2.574219 L 8.238281 6.605469 C 10.421875 6.929688 12.628906 7.144531 14.878906 6.023438 L 14.878906 8.039062 C 12.683594 9.132812 10.5 8.957031 8.238281 8.621094 L 8.238281 12.652344 L 6.761719 12.425781 L 6.761719 8.394531 C 4.578125 8.070312 2.371094 7.855469 0.121094 8.976562 L 0.121094 6.960938 C 2.316406 5.867188 4.5 6.042969 6.761719 6.378906 L 6.761719 2.347656 L 8.238281 2.574219 "/>
<use xlink:href="#surface5" mask="url(#mask0)"/>
</g>
</svg>
