<?xml version="1.0" encoding="UTF-8"?>
<svg xmlns="http://www.w3.org/2000/svg" xmlns:xlink="http://www.w3.org/1999/xlink" width="15px" height="15px" viewBox="0 0 15 15" version="1.1">
<defs>
<filter id="alpha" filterUnits="objectBoundingBox" x="0%" y="0%" width="100%" height="100%">
  <feColorMatrix type="matrix" in="SourceGraphic" values="0 0 0 0 1 0 0 0 0 1 0 0 0 0 1 0 0 0 1 0"/>
</filter>
<mask id="mask0">
  <g filter="url(#alpha)">
<rect x="0" y="0" width="15" height="15" style="fill:rgb(0%,0%,0%);fill-opacity:0.2;stroke:none;"/>
  </g>
</mask>
<clipPath id="clip1">
  <rect x="0" y="0" width="15" height="15"/>
</clipPath>
<g id="surface5" clip-path="url(#clip1)">
<path style=" stroke:none;fill-rule:nonzero;fill:rgb(10.196079%,10.196079%,10.196079%);fill-opacity:1;" d="M 0.121094 2.929688 C 2.683594 1.652344 5.234375 2.113281 7.820312 2.507812 C 10.148438 2.867188 12.5 3.179688 14.878906 1.992188 L 14.878906 12.070312 C 12.316406 13.347656 9.765625 12.886719 7.179688 12.492188 C 4.851562 12.132812 2.5 11.820312 0.121094 13.007812 L 0.121094 2.929688 M 0.589844 3.21875 L 0.589844 12.285156 C 5.1875 10.363281 9.757812 13.726562 14.410156 11.78125 L 14.410156 2.714844 C 9.8125 4.636719 5.242188 1.273438 0.589844 3.21875 "/>
</g>
</defs>
<g id="surface1">
<path style=" stroke:none;fill-rule:nonzero;fill:rgb(69.803923%,13.333334%,20.392157%);fill-opacity:1;" d="M 0.121094 2.929688 C 2.683594 1.652344 5.234375 2.113281 7.820312 2.507812 C 10.148438 2.867188 12.5 3.179688 14.878906 1.992188 L 14.878906 12.070312 C 12.316406 13.347656 9.765625 12.886719 7.179688 12.492188 C 4.851562 12.132812 2.5 11.820312 0.121094 13.007812 L 0.121094 2.929688 "/>
<path style=" stroke:none;fill-rule:nonzero;fill:rgb(100%,100%,100%);fill-opacity:1;" d="M 0.121094 3.703125 C 2.683594 2.425781 5.234375 2.886719 7.820312 3.285156 C 10.148438 3.640625 12.5 3.953125 14.878906 2.765625 L 14.878906 3.542969 C 12.316406 4.820312 9.765625 4.359375 7.179688 3.960938 C 4.851562 3.605469 2.5 3.292969 0.121094 4.480469 L 0.121094 3.703125 M 14.878906 5.09375 C 12.316406 6.371094 9.765625 5.910156 7.179688 5.511719 C 4.851562 5.15625 2.5 4.84375 0.121094 6.03125 L 0.121094 5.253906 C 2.683594 3.976562 5.234375 4.4375 7.820312 4.835938 C 10.148438 5.191406 12.5 5.503906 14.878906 4.316406 L 14.878906 5.09375 M 0.121094 6.804688 C 2.683594 5.527344 5.234375 5.988281 7.820312 6.386719 C 10.148438 6.742188 12.5 7.054688 14.878906 5.867188 L 14.878906 6.644531 C 12.316406 7.921875 9.765625 7.460938 7.179688 7.0625 C 4.851562 6.707031 2.5 6.394531 0.121094 7.582031 L 0.121094 6.804688 M 14.878906 8.195312 C 12.316406 9.472656 9.765625 9.011719 7.179688 8.613281 C 4.851562 8.257812 2.5 7.945312 0.121094 9.132812 L 0.121094 8.355469 C 2.683594 7.078125 5.234375 7.539062 7.820312 7.9375 C 10.148438 8.292969 12.5 8.605469 14.878906 7.417969 L 14.878906 8.195312 M 0.121094 9.90625 C 2.683594 8.628906 5.234375 9.089844 7.820312 9.488281 C 10.148438 9.84375 12.5 10.15625 14.878906 8.96875 L 14.878906 9.746094 C 12.316406 11.023438 9.765625 10.5625 7.179688 10.164062 C 4.851562 9.808594 2.5 9.496094 0.121094 10.683594 L 0.121094 9.90625 M 14.878906 11.296875 C 12.316406 12.574219 9.765625 12.113281 7.179688 11.714844 C 4.851562 11.359375 2.5 11.046875 0.121094 12.234375 L 0.121094 11.457031 C 2.683594 10.179688 5.234375 10.640625 7.820312 11.039062 C 10.148438 11.394531 12.5 11.707031 14.878906 10.519531 L 14.878906 11.296875 "/>
<path style=" stroke:none;fill-rule:nonzero;fill:rgb(23.529412%,23.137255%,43.137255%);fill-opacity:1;" d="M 0.121094 2.929688 C 2.070312 1.957031 4.015625 1.988281 6.023438 2.246094 L 6.023438 7.671875 C 4.078125 7.421875 2.121094 7.359375 0.121094 8.355469 L 0.121094 2.929688 "/>
<path style=" stroke:none;fill-rule:nonzero;fill:rgb(100%,100%,100%);fill-opacity:1;" d="M 0.613281 2.9375 L 0.753906 3.441406 C 0.632812 3.375 0.507812 3.3125 0.382812 3.25 C 0.535156 3.179688 0.683594 3.117188 0.839844 3.058594 L 0.472656 3.558594 L 0.613281 2.9375 "/>
<path style=" stroke:none;fill-rule:nonzero;fill:rgb(100%,100%,100%);fill-opacity:1;" d="M 0.613281 4.023438 L 0.753906 4.527344 C 0.632812 4.460938 0.507812 4.394531 0.382812 4.335938 C 0.535156 4.265625 0.683594 4.203125 0.839844 4.144531 L 0.472656 4.644531 L 0.613281 4.023438 "/>
<path style=" stroke:none;fill-rule:nonzero;fill:rgb(100%,100%,100%);fill-opacity:1;" d="M 0.613281 5.105469 L 0.753906 5.613281 C 0.632812 5.542969 0.507812 5.480469 0.382812 5.421875 C 0.535156 5.351562 0.683594 5.289062 0.839844 5.230469 L 0.472656 5.726562 L 0.613281 5.105469 "/>
<path style=" stroke:none;fill-rule:nonzero;fill:rgb(100%,100%,100%);fill-opacity:1;" d="M 0.613281 6.191406 L 0.753906 6.695312 C 0.632812 6.628906 0.507812 6.566406 0.382812 6.507812 C 0.535156 6.4375 0.683594 6.375 0.839844 6.316406 L 0.472656 6.8125 L 0.613281 6.191406 "/>
<path style=" stroke:none;fill-rule:nonzero;fill:rgb(100%,100%,100%);fill-opacity:1;" d="M 0.613281 7.277344 L 0.753906 7.78125 C 0.632812 7.714844 0.507812 7.652344 0.382812 7.589844 C 0.535156 7.523438 0.683594 7.460938 0.839844 7.402344 L 0.472656 7.898438 L 0.613281 7.277344 "/>
<path style=" stroke:none;fill-rule:nonzero;fill:rgb(100%,100%,100%);fill-opacity:1;" d="M 1.105469 3.292969 L 1.246094 3.808594 C 1.125 3.734375 1 3.660156 0.875 3.589844 C 1.027344 3.535156 1.175781 3.484375 1.332031 3.4375 L 0.964844 3.902344 L 1.105469 3.292969 "/>
<path style=" stroke:none;fill-rule:nonzero;fill:rgb(100%,100%,100%);fill-opacity:1;" d="M 1.105469 4.378906 L 1.246094 4.894531 C 1.125 4.820312 1 4.746094 0.875 4.675781 C 1.027344 4.617188 1.175781 4.566406 1.332031 4.519531 L 0.964844 4.988281 L 1.105469 4.378906 "/>
<path style=" stroke:none;fill-rule:nonzero;fill:rgb(100%,100%,100%);fill-opacity:1;" d="M 1.105469 5.464844 L 1.246094 5.980469 C 1.125 5.90625 1 5.832031 0.875 5.761719 C 1.027344 5.703125 1.175781 5.652344 1.332031 5.605469 L 0.964844 6.074219 L 1.105469 5.464844 "/>
<path style=" stroke:none;fill-rule:nonzero;fill:rgb(100%,100%,100%);fill-opacity:1;" d="M 1.105469 6.550781 L 1.246094 7.066406 C 1.125 6.988281 1 6.917969 0.875 6.84375 C 1.027344 6.789062 1.175781 6.738281 1.332031 6.691406 L 0.964844 7.160156 L 1.105469 6.550781 "/>
<path style=" stroke:none;fill-rule:nonzero;fill:rgb(100%,100%,100%);fill-opacity:1;" d="M 1.597656 2.605469 L 1.738281 3.128906 C 1.613281 3.042969 1.492188 2.960938 1.367188 2.882812 C 1.519531 2.835938 1.667969 2.796875 1.824219 2.761719 L 1.457031 3.203125 L 1.597656 2.605469 "/>
<path style=" stroke:none;fill-rule:nonzero;fill:rgb(100%,100%,100%);fill-opacity:1;" d="M 1.597656 3.6875 L 1.738281 4.214844 C 1.613281 4.128906 1.492188 4.046875 1.367188 3.96875 C 1.519531 3.921875 1.667969 3.882812 1.824219 3.847656 L 1.457031 4.289062 L 1.597656 3.6875 "/>
<path style=" stroke:none;fill-rule:nonzero;fill:rgb(100%,100%,100%);fill-opacity:1;" d="M 1.597656 4.773438 L 1.738281 5.300781 C 1.613281 5.214844 1.492188 5.132812 1.367188 5.054688 C 1.519531 5.007812 1.667969 4.96875 1.824219 4.933594 L 1.457031 5.375 L 1.597656 4.773438 "/>
<path style=" stroke:none;fill-rule:nonzero;fill:rgb(100%,100%,100%);fill-opacity:1;" d="M 1.597656 5.859375 L 1.738281 6.386719 C 1.613281 6.300781 1.492188 6.21875 1.367188 6.136719 C 1.519531 6.09375 1.667969 6.054688 1.824219 6.019531 L 1.457031 6.460938 L 1.597656 5.859375 "/>
<path style=" stroke:none;fill-rule:nonzero;fill:rgb(100%,100%,100%);fill-opacity:1;" d="M 1.597656 6.945312 L 1.738281 7.472656 C 1.613281 7.386719 1.492188 7.304688 1.367188 7.222656 C 1.519531 7.179688 1.667969 7.140625 1.824219 7.105469 L 1.457031 7.546875 L 1.597656 6.945312 "/>
<path style=" stroke:none;fill-rule:nonzero;fill:rgb(100%,100%,100%);fill-opacity:1;" d="M 2.089844 3.03125 L 2.230469 3.566406 L 1.859375 3.296875 C 2.011719 3.261719 2.160156 3.230469 2.316406 3.207031 L 1.949219 3.625 L 2.089844 3.03125 "/>
<path style=" stroke:none;fill-rule:nonzero;fill:rgb(100%,100%,100%);fill-opacity:1;" d="M 2.089844 4.117188 L 2.230469 4.652344 L 1.859375 4.382812 C 2.011719 4.347656 2.160156 4.316406 2.316406 4.292969 L 1.949219 4.707031 L 2.089844 4.117188 "/>
<path style=" stroke:none;fill-rule:nonzero;fill:rgb(100%,100%,100%);fill-opacity:1;" d="M 2.089844 5.203125 L 2.230469 5.738281 L 1.859375 5.464844 C 2.011719 5.433594 2.160156 5.402344 2.316406 5.375 L 1.949219 5.792969 L 2.089844 5.203125 "/>
<path style=" stroke:none;fill-rule:nonzero;fill:rgb(100%,100%,100%);fill-opacity:1;" d="M 2.089844 6.289062 L 2.230469 6.824219 L 1.859375 6.550781 C 2.011719 6.519531 2.160156 6.488281 2.316406 6.460938 L 1.949219 6.878906 L 2.089844 6.289062 "/>
<path style=" stroke:none;fill-rule:nonzero;fill:rgb(100%,100%,100%);fill-opacity:1;" d="M 2.578125 2.410156 L 2.71875 2.953125 L 2.351562 2.65625 C 2.503906 2.632812 2.652344 2.613281 2.808594 2.59375 L 2.4375 2.988281 L 2.578125 2.410156 "/>
<path style=" stroke:none;fill-rule:nonzero;fill:rgb(100%,100%,100%);fill-opacity:1;" d="M 2.578125 3.492188 L 2.71875 4.035156 L 2.351562 3.742188 C 2.503906 3.71875 2.652344 3.699219 2.808594 3.679688 L 2.4375 4.074219 L 2.578125 3.492188 "/>
<path style=" stroke:none;fill-rule:nonzero;fill:rgb(100%,100%,100%);fill-opacity:1;" d="M 2.578125 4.578125 L 2.71875 5.121094 L 2.351562 4.828125 C 2.503906 4.804688 2.652344 4.78125 2.808594 4.765625 L 2.4375 5.160156 L 2.578125 4.578125 "/>
<path style=" stroke:none;fill-rule:nonzero;fill:rgb(100%,100%,100%);fill-opacity:1;" d="M 2.578125 5.664062 L 2.71875 6.207031 L 2.351562 5.914062 C 2.503906 5.890625 2.652344 5.867188 2.808594 5.851562 L 2.4375 6.246094 L 2.578125 5.664062 "/>
<path style=" stroke:none;fill-rule:nonzero;fill:rgb(100%,100%,100%);fill-opacity:1;" d="M 2.578125 6.75 L 2.71875 7.292969 L 2.351562 7 C 2.503906 6.972656 2.652344 6.953125 2.808594 6.9375 L 2.4375 7.332031 L 2.578125 6.75 "/>
<path style=" stroke:none;fill-rule:nonzero;fill:rgb(100%,100%,100%);fill-opacity:1;" d="M 3.070312 2.898438 L 3.210938 3.449219 L 2.84375 3.132812 C 2.996094 3.117188 3.144531 3.105469 3.300781 3.097656 L 2.929688 3.472656 L 3.070312 2.898438 "/>
<path style=" stroke:none;fill-rule:nonzero;fill:rgb(100%,100%,100%);fill-opacity:1;" d="M 3.070312 3.984375 L 3.210938 4.535156 L 2.84375 4.21875 C 2.996094 4.203125 3.144531 4.191406 3.300781 4.183594 L 2.929688 4.558594 L 3.070312 3.984375 "/>
<path style=" stroke:none;fill-rule:nonzero;fill:rgb(100%,100%,100%);fill-opacity:1;" d="M 3.070312 5.070312 L 3.210938 5.621094 L 2.84375 5.304688 C 2.996094 5.289062 3.144531 5.277344 3.300781 5.265625 L 2.929688 5.640625 L 3.070312 5.070312 "/>
<path style=" stroke:none;fill-rule:nonzero;fill:rgb(100%,100%,100%);fill-opacity:1;" d="M 3.070312 6.15625 L 3.210938 6.707031 L 2.84375 6.390625 C 2.996094 6.375 3.144531 6.363281 3.300781 6.351562 L 2.929688 6.726562 L 3.070312 6.15625 "/>
<path style=" stroke:none;fill-rule:nonzero;fill:rgb(100%,100%,100%);fill-opacity:1;" d="M 3.5625 2.328125 L 3.703125 2.886719 L 3.335938 2.550781 C 3.488281 2.542969 3.636719 2.539062 3.792969 2.539062 L 3.421875 2.894531 L 3.5625 2.328125 "/>
<path style=" stroke:none;fill-rule:nonzero;fill:rgb(100%,100%,100%);fill-opacity:1;" d="M 3.5625 3.414062 L 3.703125 3.972656 L 3.335938 3.636719 C 3.488281 3.628906 3.636719 3.625 3.792969 3.621094 L 3.421875 3.980469 L 3.5625 3.414062 "/>
<path style=" stroke:none;fill-rule:nonzero;fill:rgb(100%,100%,100%);fill-opacity:1;" d="M 3.5625 4.5 L 3.703125 5.054688 L 3.335938 4.722656 C 3.488281 4.714844 3.636719 4.710938 3.792969 4.707031 L 3.421875 5.066406 L 3.5625 4.5 "/>
<path style=" stroke:none;fill-rule:nonzero;fill:rgb(100%,100%,100%);fill-opacity:1;" d="M 3.5625 5.585938 L 3.703125 6.140625 L 3.335938 5.808594 C 3.488281 5.800781 3.636719 5.796875 3.792969 5.792969 L 3.421875 6.152344 L 3.5625 5.585938 "/>
<path style=" stroke:none;fill-rule:nonzero;fill:rgb(100%,100%,100%);fill-opacity:1;" d="M 3.5625 6.667969 L 3.703125 7.226562 L 3.335938 6.894531 C 3.488281 6.886719 3.636719 6.882812 3.792969 6.878906 L 3.421875 7.234375 L 3.5625 6.667969 "/>
<path style=" stroke:none;fill-rule:nonzero;fill:rgb(100%,100%,100%);fill-opacity:1;" d="M 4.054688 2.867188 L 4.195312 3.429688 L 3.828125 3.078125 C 3.980469 3.078125 4.128906 3.082031 4.285156 3.085938 L 3.914062 3.425781 L 4.054688 2.867188 "/>
<path style=" stroke:none;fill-rule:nonzero;fill:rgb(100%,100%,100%);fill-opacity:1;" d="M 4.054688 3.953125 L 4.195312 4.515625 L 3.828125 4.164062 C 3.980469 4.164062 4.128906 4.167969 4.285156 4.171875 L 3.914062 4.511719 L 4.054688 3.953125 "/>
<path style=" stroke:none;fill-rule:nonzero;fill:rgb(100%,100%,100%);fill-opacity:1;" d="M 4.054688 5.035156 L 4.195312 5.601562 L 3.828125 5.25 C 3.980469 5.25 4.128906 5.25 4.285156 5.257812 L 3.914062 5.597656 L 4.054688 5.035156 "/>
<path style=" stroke:none;fill-rule:nonzero;fill:rgb(100%,100%,100%);fill-opacity:1;" d="M 4.054688 6.121094 L 4.195312 6.6875 L 3.828125 6.335938 C 3.980469 6.335938 4.128906 6.335938 4.285156 6.339844 L 3.914062 6.683594 L 4.054688 6.121094 "/>
<path style=" stroke:none;fill-rule:nonzero;fill:rgb(100%,100%,100%);fill-opacity:1;" d="M 4.546875 2.339844 L 4.6875 2.90625 L 4.320312 2.542969 L 4.777344 2.566406 L 4.40625 2.894531 L 4.546875 2.339844 "/>
<path style=" stroke:none;fill-rule:nonzero;fill:rgb(100%,100%,100%);fill-opacity:1;" d="M 4.546875 3.425781 L 4.6875 3.992188 L 4.320312 3.628906 L 4.777344 3.652344 L 4.40625 3.980469 L 4.546875 3.425781 "/>
<path style=" stroke:none;fill-rule:nonzero;fill:rgb(100%,100%,100%);fill-opacity:1;" d="M 4.546875 4.507812 L 4.6875 5.078125 L 4.320312 4.714844 L 4.777344 4.738281 L 4.40625 5.066406 L 4.546875 4.507812 "/>
<path style=" stroke:none;fill-rule:nonzero;fill:rgb(100%,100%,100%);fill-opacity:1;" d="M 4.546875 5.59375 L 4.6875 6.164062 L 4.320312 5.800781 L 4.777344 5.824219 L 4.40625 6.148438 L 4.546875 5.59375 "/>
<path style=" stroke:none;fill-rule:nonzero;fill:rgb(100%,100%,100%);fill-opacity:1;" d="M 4.546875 6.679688 L 4.6875 7.25 L 4.320312 6.886719 L 4.777344 6.910156 L 4.40625 7.234375 L 4.546875 6.679688 "/>
<path style=" stroke:none;fill-rule:nonzero;fill:rgb(100%,100%,100%);fill-opacity:1;" d="M 5.039062 2.914062 L 5.179688 3.488281 L 4.8125 3.113281 L 5.265625 3.148438 L 4.898438 3.464844 L 5.039062 2.914062 "/>
<path style=" stroke:none;fill-rule:nonzero;fill:rgb(100%,100%,100%);fill-opacity:1;" d="M 5.039062 4 L 5.179688 4.574219 L 4.8125 4.195312 L 5.265625 4.234375 L 4.898438 4.550781 L 5.039062 4 "/>
<path style=" stroke:none;fill-rule:nonzero;fill:rgb(100%,100%,100%);fill-opacity:1;" d="M 5.039062 5.085938 L 5.179688 5.660156 L 4.8125 5.28125 L 5.265625 5.320312 L 4.898438 5.636719 L 5.039062 5.085938 "/>
<path style=" stroke:none;fill-rule:nonzero;fill:rgb(100%,100%,100%);fill-opacity:1;" d="M 5.039062 6.171875 L 5.179688 6.742188 L 4.8125 6.367188 L 5.265625 6.40625 L 4.898438 6.722656 L 5.039062 6.171875 "/>
<path style=" stroke:none;fill-rule:nonzero;fill:rgb(100%,100%,100%);fill-opacity:1;" d="M 5.53125 2.417969 L 5.671875 2.996094 L 5.304688 2.609375 L 5.757812 2.660156 L 5.390625 2.964844 L 5.53125 2.417969 "/>
<path style=" stroke:none;fill-rule:nonzero;fill:rgb(100%,100%,100%);fill-opacity:1;" d="M 5.53125 3.503906 L 5.671875 4.082031 L 5.304688 3.695312 L 5.757812 3.746094 L 5.390625 4.050781 L 5.53125 3.503906 "/>
<path style=" stroke:none;fill-rule:nonzero;fill:rgb(100%,100%,100%);fill-opacity:1;" d="M 5.53125 4.589844 L 5.671875 5.167969 L 5.304688 4.78125 L 5.757812 4.828125 L 5.390625 5.136719 L 5.53125 4.589844 "/>
<path style=" stroke:none;fill-rule:nonzero;fill:rgb(100%,100%,100%);fill-opacity:1;" d="M 5.53125 5.675781 L 5.671875 6.25 L 5.304688 5.867188 L 5.757812 5.914062 L 5.390625 6.222656 L 5.53125 5.675781 "/>
<path style=" stroke:none;fill-rule:nonzero;fill:rgb(100%,100%,100%);fill-opacity:1;" d="M 5.53125 6.761719 L 5.671875 7.335938 L 5.304688 6.953125 L 5.757812 7 L 5.390625 7.308594 L 5.53125 6.761719 "/>
<use xlink:href="#surface5" mask="url(#mask0)"/>
</g>
</svg>
