<?xml version="1.0" encoding="UTF-8"?>
<svg xmlns="http://www.w3.org/2000/svg" xmlns:xlink="http://www.w3.org/1999/xlink" width="20px" height="20px" viewBox="0 0 20 20" version="1.1">
<g id="surface1">
<path style=" stroke:none;fill-rule:nonzero;fill:rgb(0%,0%,0%);fill-opacity:1;" d="M 7.5 9.167969 L 5.832031 9.167969 L 5.832031 10.832031 L 7.5 10.832031 Z M 10.832031 9.167969 L 9.167969 9.167969 L 9.167969 10.832031 L 10.832031 10.832031 Z M 14.167969 9.167969 L 12.5 9.167969 L 12.5 10.832031 L 14.167969 10.832031 Z M 15.832031 3.332031 L 15 3.332031 L 15 1.667969 L 13.332031 1.667969 L 13.332031 3.332031 L 6.667969 3.332031 L 6.667969 1.667969 L 5 1.667969 L 5 3.332031 L 4.167969 3.332031 C 3.242188 3.332031 2.507812 4.082031 2.507812 5 L 2.5 16.667969 C 2.5 17.582031 3.242188 18.332031 4.167969 18.332031 L 15.832031 18.332031 C 16.75 18.332031 17.5 17.582031 17.5 16.667969 L 17.5 5 C 17.5 4.082031 16.75 3.332031 15.832031 3.332031 Z M 15.832031 16.667969 L 4.167969 16.667969 L 4.167969 7.5 L 15.832031 7.5 Z M 15.832031 16.667969 "/>
</g>
</svg>
