<?xml version="1.0" encoding="UTF-8"?>
<svg xmlns="http://www.w3.org/2000/svg" xmlns:xlink="http://www.w3.org/1999/xlink" width="20px" height="12px" viewBox="0 0 20 12" version="1.1">
<defs>
<clipPath id="clip1">
  <path d="M 0.0898438 0 L 19.972656 0 L 19.972656 12 L 0.0898438 12 Z M 0.0898438 0 "/>
</clipPath>
</defs>
<g id="surface1">
<g clip-path="url(#clip1)" clip-rule="nonzero">
<path style=" stroke:none;fill-rule:nonzero;fill:rgb(100%,100%,100%);fill-opacity:1;" d="M 18.765625 0.046875 C 18.398438 0.0117188 18.125 0.0898438 17.925781 0.277344 C 17.667969 0.523438 17.542969 0.949219 17.53125 1.625 C 17.320312 1.875 17.105469 2.125 16.894531 2.375 C 16.394531 2.960938 15.898438 3.542969 15.402344 4.132812 C 14.910156 4.71875 14.410156 5.320312 13.933594 5.898438 L 13.308594 6.648438 C 13.253906 6.644531 13.195312 6.644531 13.136719 6.640625 C 12.957031 6.617188 12.773438 6.621094 12.59375 6.667969 C 12.359375 6.738281 12.21875 6.671875 12.011719 6.503906 C 10.871094 5.558594 9.8125 4.824219 8.769531 4.257812 C 8.6875 4.222656 8.617188 4.160156 8.5625 4.089844 C 8.503906 4.019531 8.464844 3.933594 8.445312 3.84375 C 8.363281 3.515625 8.160156 3.238281 7.878906 3.0625 C 7.601562 2.890625 7.265625 2.835938 6.949219 2.917969 C 6.628906 2.992188 6.34375 3.199219 6.160156 3.480469 C 5.976562 3.761719 5.902344 4.113281 5.949219 4.449219 C 5.964844 4.539062 5.980469 4.628906 5.996094 4.714844 L 6.003906 4.785156 L 1.828125 8.957031 L 1.765625 8.949219 C 1.691406 8.941406 1.621094 8.9375 1.550781 8.933594 C 0.859375 8.914062 0.4375 9.226562 0.210938 9.921875 C 0.046875 10.441406 0.226562 10.910156 0.378906 11.214844 C 0.480469 11.429688 0.636719 11.617188 0.832031 11.753906 C 1.027344 11.890625 1.253906 11.96875 1.488281 11.988281 C 1.511719 11.988281 1.535156 11.988281 1.558594 11.988281 C 1.785156 11.988281 2.003906 11.925781 2.199219 11.8125 C 2.394531 11.695312 2.5625 11.535156 2.683594 11.335938 C 3.042969 10.773438 3.097656 10.246094 2.855469 9.726562 L 6.90625 5.714844 L 8.035156 5.355469 L 11.386719 7.742188 C 11.417969 8.253906 11.535156 8.636719 11.785156 8.984375 C 11.925781 9.199219 12.136719 9.351562 12.378906 9.425781 C 12.617188 9.5 12.875 9.480469 13.105469 9.386719 C 13.773438 9.121094 14.148438 8.539062 14.128906 7.777344 L 18.191406 2.53125 C 18.773438 2.648438 19.21875 2.59375 19.523438 2.371094 C 19.761719 2.195312 19.910156 1.925781 19.953125 1.570312 C 19.980469 1.390625 19.972656 1.207031 19.929688 1.027344 C 19.886719 0.851562 19.808594 0.6875 19.699219 0.542969 C 19.582031 0.398438 19.441406 0.277344 19.28125 0.195312 C 19.121094 0.109375 18.949219 0.0585938 18.765625 0.046875 Z M 18.765625 0.046875 "/>
</g>
</g>
</svg>
