<?xml version="1.0" encoding="UTF-8"?>
<svg xmlns="http://www.w3.org/2000/svg" xmlns:xlink="http://www.w3.org/1999/xlink" width="20px" height="20px" viewBox="0 0 20 20" version="1.1">
<g id="surface1">
<path style=" stroke:none;fill-rule:nonzero;fill:rgb(94.117647%,97.254902%,100%);fill-opacity:1;" d="M 4.167969 17.5 L 6.394531 17.5 L 6.394531 13.605469 L 2.5 13.605469 L 2.5 15.832031 C 2.5 16.292969 2.664062 16.683594 2.988281 17.011719 C 3.316406 17.335938 3.707031 17.5 4.167969 17.5 Z M 8.0625 17.5 L 11.9375 17.5 L 11.9375 13.605469 L 8.0625 13.605469 Z M 13.605469 17.5 L 15.832031 17.5 C 16.292969 17.5 16.683594 17.335938 17.011719 17.011719 C 17.335938 16.683594 17.5 16.292969 17.5 15.832031 L 17.5 13.605469 L 13.605469 13.605469 Z M 2.5 11.9375 L 6.394531 11.9375 L 6.394531 8.0625 L 2.5 8.0625 Z M 8.0625 11.9375 L 11.9375 11.9375 L 11.9375 8.0625 L 8.0625 8.0625 Z M 13.605469 11.9375 L 17.5 11.9375 L 17.5 8.0625 L 13.605469 8.0625 Z M 2.5 6.394531 L 6.394531 6.394531 L 6.394531 2.5 L 4.167969 2.5 C 3.707031 2.5 3.316406 2.664062 2.988281 2.988281 C 2.664062 3.316406 2.5 3.707031 2.5 4.167969 Z M 8.0625 6.394531 L 11.9375 6.394531 L 11.9375 2.5 L 8.0625 2.5 Z M 13.605469 6.394531 L 17.5 6.394531 L 17.5 4.167969 C 17.5 3.707031 17.335938 3.316406 17.011719 2.988281 C 16.683594 2.664062 16.292969 2.5 15.832031 2.5 L 13.605469 2.5 Z M 13.605469 6.394531 "/>
</g>
</svg>
