<?xml version="1.0" encoding="UTF-8"?>
<svg xmlns="http://www.w3.org/2000/svg" xmlns:xlink="http://www.w3.org/1999/xlink" width="20px" height="20px" viewBox="0 0 20 20" version="1.1">
<g id="surface1">
<path style=" stroke:none;fill-rule:nonzero;fill:rgb(94.117647%,97.254902%,100%);fill-opacity:1;" d="M 4.167969 17.5 C 3.707031 17.5 3.316406 17.335938 2.988281 17.011719 C 2.664062 16.683594 2.5 16.292969 2.5 15.832031 L 2.5 4.167969 C 2.5 3.707031 2.664062 3.316406 2.988281 2.988281 C 3.316406 2.664062 3.707031 2.5 4.167969 2.5 L 7.644531 2.5 C 7.796875 2.015625 8.097656 1.613281 8.542969 1.300781 C 8.984375 0.988281 9.472656 0.832031 10 0.832031 C 10.554688 0.832031 11.050781 0.988281 11.488281 1.300781 C 11.925781 1.613281 12.222656 2.015625 12.375 2.5 L 15.832031 2.5 C 16.292969 2.5 16.683594 2.664062 17.011719 2.988281 C 17.335938 3.316406 17.5 3.707031 17.5 4.167969 L 17.5 15.832031 C 17.5 16.292969 17.335938 16.683594 17.011719 17.011719 C 16.683594 17.335938 16.292969 17.5 15.832031 17.5 Z M 4.167969 15.832031 L 15.832031 15.832031 L 15.832031 4.167969 L 14.167969 4.167969 L 14.167969 6.667969 L 5.832031 6.667969 L 5.832031 4.167969 L 4.167969 4.167969 Z M 10 4.167969 C 10.234375 4.167969 10.433594 4.085938 10.59375 3.925781 C 10.753906 3.765625 10.832031 3.570312 10.832031 3.332031 C 10.832031 3.097656 10.753906 2.898438 10.59375 2.738281 C 10.433594 2.578125 10.234375 2.5 10 2.5 C 9.765625 2.5 9.566406 2.578125 9.40625 2.738281 C 9.246094 2.898438 9.167969 3.097656 9.167969 3.332031 C 9.167969 3.570312 9.246094 3.765625 9.40625 3.925781 C 9.566406 4.085938 9.765625 4.167969 10 4.167969 Z M 10 4.167969 "/>
</g>
</svg>
