<?xml version="1.0" encoding="UTF-8"?>
<svg xmlns="http://www.w3.org/2000/svg" xmlns:xlink="http://www.w3.org/1999/xlink" width="30px" height="30px" viewBox="0 0 30 30" version="1.1">
<g id="surface1">
<path style=" stroke:none;fill-rule:nonzero;fill:rgb(100%,100%,100%);fill-opacity:1;" d="M 15 3.363281 C 8.585938 3.363281 3.363281 8.585938 3.363281 15 C 3.363281 17.628906 4.21875 20.113281 5.84375 22.179688 C 8.0625 25.011719 11.402344 26.636719 15 26.636719 C 18.597656 26.636719 21.9375 25.011719 24.164062 22.179688 C 25.78125 20.109375 26.636719 17.628906 26.636719 15 C 26.636719 8.585938 21.414062 3.363281 15 3.363281 Z M 19.460938 14.3125 C 19.414062 13.242188 19.261719 12.179688 18.992188 11.136719 C 20.273438 10.828125 21.511719 10.367188 22.679688 9.773438 C 23.597656 11.121094 24.140625 12.695312 24.257812 14.3125 Z M 14.917969 24.292969 C 14.886719 24.292969 14.851562 24.289062 14.820312 24.289062 C 14.222656 23.511719 13.273438 22.082031 12.582031 20.101562 C 13.382812 19.972656 14.191406 19.914062 15 19.914062 C 15.753906 19.914062 16.476562 19.964844 17.152344 20.054688 C 16.597656 21.5625 15.851562 22.984375 14.917969 24.292969 Z M 15 18.507812 C 13.992188 18.507812 13.054688 18.597656 12.179688 18.746094 C 11.929688 17.757812 11.785156 16.742188 11.734375 15.71875 L 18.0625 15.71875 C 18.003906 16.726562 17.84375 17.726562 17.582031 18.699219 C 16.726562 18.566406 15.863281 18.507812 15 18.507812 Z M 5.742188 14.3125 C 5.859375 12.695312 6.402344 11.121094 7.320312 9.773438 C 8.421875 10.328125 9.578125 10.773438 10.773438 11.082031 C 10.523438 12.140625 10.378906 13.226562 10.335938 14.320312 L 5.742188 14.320312 Z M 11.734375 14.3125 C 11.785156 13.253906 11.9375 12.269531 12.148438 11.371094 C 13.957031 11.675781 15.804688 11.6875 17.617188 11.410156 C 17.851562 12.308594 18.007812 13.289062 18.0625 14.3125 Z M 14.925781 5.707031 C 15.882812 7.039062 16.640625 8.507812 17.191406 10.046875 C 16.460938 10.152344 15.734375 10.207031 15 10.207031 C 14.132812 10.207031 13.3125 10.132812 12.542969 10.011719 C 13.242188 7.976562 14.210938 6.511719 14.820312 5.710938 C 14.859375 5.710938 14.886719 5.710938 14.925781 5.707031 Z M 21.765625 8.65625 C 20.757812 9.144531 19.691406 9.523438 18.597656 9.789062 C 18.128906 8.414062 17.503906 7.101562 16.734375 5.867188 C 18.664062 6.242188 20.429688 7.21875 21.765625 8.65625 Z M 12.9375 5.945312 C 12.183594 7.125 11.585938 8.394531 11.148438 9.722656 C 10.144531 9.46875 9.164062 9.101562 8.234375 8.65625 C 9.492188 7.304688 11.132812 6.359375 12.9375 5.945312 Z M 5.738281 15.71875 L 10.335938 15.71875 C 10.382812 16.835938 10.539062 17.953125 10.796875 19.035156 C 9.617188 19.339844 8.476562 19.769531 7.382812 20.316406 C 6.429688 18.960938 5.859375 17.375 5.738281 15.71875 Z M 8.289062 21.429688 C 9.222656 20.988281 10.191406 20.640625 11.183594 20.390625 C 11.617188 21.683594 12.210938 22.917969 12.941406 24.066406 C 11.167969 23.667969 9.554688 22.742188 8.289062 21.429688 Z M 16.726562 24.132812 C 17.484375 22.929688 18.097656 21.65625 18.5625 20.320312 C 19.644531 20.578125 20.699219 20.945312 21.710938 21.433594 C 20.375 22.835938 18.632812 23.777344 16.726562 24.132812 Z M 22.617188 20.316406 C 21.457031 19.730469 20.230469 19.273438 18.96875 18.976562 C 19.242188 17.90625 19.410156 16.824219 19.460938 15.71875 L 24.261719 15.71875 C 24.140625 17.375 23.570312 18.960938 22.617188 20.316406 Z M 22.617188 20.316406 "/>
</g>
</svg>
