<?xml version="1.0" encoding="UTF-8"?>
<svg xmlns="http://www.w3.org/2000/svg" xmlns:xlink="http://www.w3.org/1999/xlink" width="10px" height="10px" viewBox="0 0 10 10" version="1.1">
<g id="surface1">
<path style=" stroke:none;fill-rule:evenodd;fill:rgb(55.29412%,55.29412%,55.29412%);fill-opacity:1;" d="M 1.25 3.75 L 1.25 3.933594 C 1.25 4.824219 1.554688 5.691406 2.113281 6.390625 L 5 10 L 7.886719 6.390625 C 8.445312 5.691406 8.75 4.824219 8.75 3.933594 L 8.75 3.75 C 8.75 1.679688 7.070312 0 5 0 C 2.929688 0 1.25 1.679688 1.25 3.75 Z M 5 5 C 5.691406 5 6.25 4.441406 6.25 3.75 C 6.25 3.058594 5.691406 2.5 5 2.5 C 4.308594 2.5 3.75 3.058594 3.75 3.75 C 3.75 4.441406 4.308594 5 5 5 Z M 5 5 "/>
</g>
</svg>
