<?xml version="1.0" encoding="UTF-8"?>
<svg xmlns="http://www.w3.org/2000/svg" xmlns:xlink="http://www.w3.org/1999/xlink" width="20px" height="20px" viewBox="0 0 20 20" version="1.1">
<g id="surface1">
<path style=" stroke:none;fill-rule:nonzero;fill:rgb(94.117647%,97.254902%,100%);fill-opacity:1;" d="M 4.167969 17.5 C 3.707031 17.5 3.316406 17.335938 2.988281 17.011719 C 2.664062 16.683594 2.5 16.292969 2.5 15.832031 L 2.5 4.167969 C 2.5 3.707031 2.664062 3.316406 2.988281 2.988281 C 3.316406 2.664062 3.707031 2.5 4.167969 2.5 L 15.832031 2.5 C 16.292969 2.5 16.683594 2.664062 17.011719 2.988281 C 17.335938 3.316406 17.5 3.707031 17.5 4.167969 L 17.5 15.832031 C 17.5 16.292969 17.335938 16.683594 17.011719 17.011719 C 16.683594 17.335938 16.292969 17.5 15.832031 17.5 Z M 5 14.167969 L 15 14.167969 L 11.875 10 L 9.375 13.332031 L 7.5 10.832031 Z M 5 14.167969 "/>
</g>
</svg>
