<?xml version="1.0" encoding="UTF-8"?>
<svg xmlns="http://www.w3.org/2000/svg" xmlns:xlink="http://www.w3.org/1999/xlink" width="28px" height="28px" viewBox="0 0 28 28" version="1.1">
<g id="surface1">
<path style=" stroke:none;fill-rule:nonzero;fill:rgb(100%,100%,100%);fill-opacity:1;" d="M 22.464844 12.535156 C 24.15625 12.535156 25.550781 13.875 25.660156 15.546875 L 25.660156 18.964844 C 25.660156 20.015625 24.84375 20.90625 23.800781 21 L 4.375 21 C 3.304688 21 2.421875 20.191406 2.339844 19.125 L 2.339844 15.75 C 2.339844 14.125 3.542969 12.753906 5.144531 12.5625 C 6.765625 12.359375 8.269531 13.402344 8.65625 14.980469 L 8.691406 15.160156 L 19.308594 15.160156 L 19.34375 14.980469 C 19.703125 13.546875 20.984375 12.535156 22.464844 12.535156 Z M 6.714844 7 L 21.285156 7 C 22.355469 7 23.230469 7.808594 23.3125 8.875 L 23.339844 9.035156 L 23.339844 11.46875 C 21.3125 11.046875 19.265625 12.117188 18.441406 14 L 9.558594 14 C 8.734375 12.117188 6.6875 11.046875 4.660156 11.46875 L 4.660156 9.035156 C 4.660156 7.984375 5.472656 7.09375 6.546875 7 Z M 6.714844 7 "/>
</g>
</svg>
