<?xml version="1.0" encoding="UTF-8"?>
<svg xmlns="http://www.w3.org/2000/svg" xmlns:xlink="http://www.w3.org/1999/xlink" width="20px" height="20px" viewBox="0 0 20 20" version="1.1">
<g id="surface1">
<path style="fill:none;stroke-width:4;stroke-linecap:butt;stroke-linejoin:miter;stroke:rgb(100%,100%,100%);stroke-opacity:1;stroke-miterlimit:4;" d="M 39.3 6 L 8.7 6 C 7.209375 6 6 7.209375 6 8.7 L 6 39.3 C 6 40.790625 7.209375 42 8.7 42 L 39.3 42 C 40.790625 42 42 40.790625 42 39.3 L 42 8.7 C 42 7.209375 40.790625 6 39.3 6 Z M 39.3 6 " transform="matrix(0.416667,0,0,0.416667,0,0)"/>
<path style="fill:none;stroke-width:4;stroke-linecap:round;stroke-linejoin:miter;stroke:rgb(100%,100%,100%);stroke-opacity:1;stroke-miterlimit:4;" d="M 18 6 L 18 42 M 30 6 L 30 42 M 6 18 L 42 18 M 6 30 L 42 30 " transform="matrix(0.416667,0,0,0.416667,0,0)"/>
</g>
</svg>
