<?xml version="1.0" encoding="UTF-8"?>
<svg xmlns="http://www.w3.org/2000/svg" xmlns:xlink="http://www.w3.org/1999/xlink" width="20px" height="20px" viewBox="0 0 20 20" version="1.1">
<g id="surface1">
<path style=" stroke:none;fill-rule:nonzero;fill:rgb(0%,0%,0%);fill-opacity:1;" d="M 6.433594 5 C 6.433594 4.609375 6.285156 4.265625 6.003906 3.996094 C 5.734375 3.714844 5.390625 3.566406 5 3.566406 C 4.609375 3.566406 4.265625 3.714844 3.996094 3.996094 C 3.714844 4.265625 3.566406 4.609375 3.566406 5 C 3.566406 5.390625 3.714844 5.734375 3.996094 6.003906 C 4.265625 6.285156 4.609375 6.433594 5 6.433594 C 5.390625 6.433594 5.734375 6.285156 6.003906 6.003906 C 6.285156 5.734375 6.433594 5.390625 6.433594 5 Z M 18.339844 11.433594 C 18.339844 11.816406 18.203125 12.15625 17.921875 12.433594 L 12.441406 17.921875 C 12.15625 18.203125 11.8125 18.339844 11.433594 18.339844 C 11.03125 18.339844 10.703125 18.203125 10.421875 17.921875 L 2.441406 9.933594 C 2.160156 9.65625 1.921875 9.28125 1.722656 8.808594 C 1.527344 8.328125 1.433594 7.890625 1.433594 7.5 L 1.433594 2.859375 C 1.433594 2.46875 1.566406 2.128906 1.847656 1.847656 C 2.128906 1.566406 2.46875 1.433594 2.859375 1.433594 L 7.5 1.433594 C 7.890625 1.433594 8.328125 1.527344 8.808594 1.722656 C 9.28125 1.921875 9.660156 2.160156 9.941406 2.441406 L 17.921875 10.410156 C 18.203125 10.703125 18.339844 11.035156 18.339844 11.433594 Z M 18.339844 11.433594 "/>
</g>
</svg>
