<?xml version="1.0" encoding="UTF-8"?>
<svg xmlns="http://www.w3.org/2000/svg" xmlns:xlink="http://www.w3.org/1999/xlink" width="15px" height="15px" viewBox="0 0 15 15" version="1.1">
<g id="surface1">
<path style=" stroke:none;fill-rule:nonzero;fill:rgb(0%,0%,0%);fill-opacity:1;" d="M 8.417969 1.472656 C 8.230469 1.136719 7.878906 0.9375 7.5 0.9375 C 7.125 0.9375 6.773438 1.136719 6.585938 1.472656 L 0.152344 12.402344 C -0.277344 13.136719 0.238281 14.0625 1.074219 14.0625 L 13.925781 14.0625 C 14.765625 14.0625 15.277344 13.136719 14.847656 12.402344 Z M 7.5 4.6875 C 8.003906 4.6875 8.394531 5.121094 8.34375 5.621094 L 8.015625 8.90625 C 7.992188 9.175781 7.769531 9.378906 7.5 9.378906 C 7.230469 9.378906 7.007812 9.175781 6.984375 8.90625 L 6.65625 5.621094 C 6.632812 5.386719 6.707031 5.144531 6.871094 4.96875 C 7.03125 4.785156 7.261719 4.6875 7.5 4.6875 Z M 7.5 10.3125 C 8.019531 10.3125 8.4375 10.734375 8.4375 11.25 C 8.4375 11.765625 8.019531 12.1875 7.5 12.1875 C 6.984375 12.1875 6.5625 11.765625 6.5625 11.25 C 6.5625 10.734375 6.984375 10.3125 7.5 10.3125 Z M 7.5 10.3125 "/>
</g>
</svg>
