<?xml version="1.0" encoding="UTF-8"?>
<svg xmlns="http://www.w3.org/2000/svg" xmlns:xlink="http://www.w3.org/1999/xlink" width="18px" height="20px" viewBox="0 0 18 20" version="1.1">
<g id="surface1">
<path style=" stroke:none;fill-rule:nonzero;fill:rgb(100%,100%,100%);fill-opacity:1;" d="M 6.75 9.167969 L 5.25 9.167969 L 5.25 10.832031 L 6.75 10.832031 Z M 9.75 9.167969 L 8.25 9.167969 L 8.25 10.832031 L 9.75 10.832031 Z M 12.75 9.167969 L 11.25 9.167969 L 11.25 10.832031 L 12.75 10.832031 Z M 14.25 3.332031 L 13.5 3.332031 L 13.5 1.667969 L 12 1.667969 L 12 3.332031 L 6 3.332031 L 6 1.667969 L 4.5 1.667969 L 4.5 3.332031 L 3.75 3.332031 C 2.917969 3.332031 2.261719 4.078125 2.261719 5 L 2.25 16.667969 C 2.25 17.585938 2.917969 18.332031 3.75 18.332031 L 14.25 18.332031 C 15.074219 18.332031 15.75 17.585938 15.75 16.667969 L 15.75 5 C 15.75 4.078125 15.074219 3.332031 14.25 3.332031 Z M 14.25 16.667969 L 3.75 16.667969 L 3.75 7.5 L 14.25 7.5 Z M 14.25 16.667969 "/>
</g>
</svg>
