<?xml version="1.0" encoding="UTF-8"?>
<svg xmlns="http://www.w3.org/2000/svg" xmlns:xlink="http://www.w3.org/1999/xlink" width="20px" height="20px" viewBox="0 0 20 20" version="1.1">
<g id="surface1">
<path style=" stroke:none;fill-rule:nonzero;fill:rgb(100%,100%,100%);fill-opacity:1;" d="M 6.40625 6.90625 L 3.3125 6.90625 C 3.03125 6.90625 2.8125 6.6875 2.8125 6.40625 L 2.8125 3.3125 C 2.8125 3.03125 3.03125 2.8125 3.3125 2.8125 L 6.40625 2.8125 C 6.6875 2.8125 6.90625 3.03125 6.90625 3.3125 L 6.90625 6.40625 C 6.90625 6.6875 6.6875 6.90625 6.40625 6.90625 Z M 11.53125 6.90625 L 8.4375 6.90625 C 8.15625 6.90625 7.9375 6.6875 7.9375 6.40625 L 7.9375 3.3125 C 7.9375 3.03125 8.15625 2.8125 8.4375 2.8125 L 11.53125 2.8125 C 11.8125 2.8125 12.03125 3.03125 12.03125 3.3125 L 12.03125 6.40625 C 12.0625 6.6875 11.8125 6.90625 11.53125 6.90625 Z M 16.6875 6.90625 L 13.59375 6.90625 C 13.3125 6.90625 13.09375 6.6875 13.09375 6.40625 L 13.09375 3.3125 C 13.09375 3.03125 13.3125 2.8125 13.59375 2.8125 L 16.6875 2.8125 C 16.96875 2.8125 17.1875 3.03125 17.1875 3.3125 L 17.1875 6.40625 C 17.1875 6.6875 16.96875 6.90625 16.6875 6.90625 Z M 6.40625 12.0625 L 3.3125 12.0625 C 3.03125 12.0625 2.8125 11.84375 2.8125 11.5625 L 2.8125 8.46875 C 2.8125 8.1875 3.03125 7.96875 3.3125 7.96875 L 6.40625 7.96875 C 6.6875 7.96875 6.90625 8.1875 6.90625 8.46875 L 6.90625 11.5625 C 6.90625 11.8125 6.6875 12.0625 6.40625 12.0625 Z M 11.53125 12.0625 L 8.4375 12.0625 C 8.15625 12.0625 7.9375 11.84375 7.9375 11.5625 L 7.9375 8.46875 C 7.9375 8.1875 8.15625 7.96875 8.4375 7.96875 L 11.53125 7.96875 C 11.8125 7.96875 12.03125 8.1875 12.03125 8.46875 L 12.03125 11.5625 C 12.0625 11.8125 11.8125 12.0625 11.53125 12.0625 Z M 16.6875 12.0625 L 13.59375 12.0625 C 13.3125 12.0625 13.09375 11.84375 13.09375 11.5625 L 13.09375 8.46875 C 13.09375 8.1875 13.3125 7.96875 13.59375 7.96875 L 16.6875 7.96875 C 16.96875 7.96875 17.1875 8.1875 17.1875 8.46875 L 17.1875 11.5625 C 17.1875 11.8125 16.96875 12.0625 16.6875 12.0625 Z M 6.40625 17.1875 L 3.3125 17.1875 C 3.03125 17.1875 2.8125 16.96875 2.8125 16.6875 L 2.8125 13.59375 C 2.8125 13.3125 3.03125 13.09375 3.3125 13.09375 L 6.40625 13.09375 C 6.6875 13.09375 6.90625 13.3125 6.90625 13.59375 L 6.90625 16.6875 C 6.90625 16.96875 6.6875 17.1875 6.40625 17.1875 Z M 11.53125 17.1875 L 8.4375 17.1875 C 8.15625 17.1875 7.9375 16.96875 7.9375 16.6875 L 7.9375 13.59375 C 7.9375 13.3125 8.15625 13.09375 8.4375 13.09375 L 11.53125 13.09375 C 11.8125 13.09375 12.03125 13.3125 12.03125 13.59375 L 12.03125 16.6875 C 12.0625 16.96875 11.8125 17.1875 11.53125 17.1875 Z M 16.6875 17.1875 L 13.59375 17.1875 C 13.3125 17.1875 13.09375 16.96875 13.09375 16.6875 L 13.09375 13.59375 C 13.09375 13.3125 13.3125 13.09375 13.59375 13.09375 L 16.6875 13.09375 C 16.96875 13.09375 17.1875 13.3125 17.1875 13.59375 L 17.1875 16.6875 C 17.1875 16.96875 16.96875 17.1875 16.6875 17.1875 Z M 16.6875 17.1875 "/>
</g>
</svg>
